<?xml version="1.0" encoding="UTF-8"?>
<svg version="1.1" xmlns="http://www.w3.org/2000/svg" width="500" height="500">
<path d="M0 0 C0.75039551 -0.00523682 1.50079102 -0.01047363 2.27392578 -0.01586914 C6.07210893 0.03273728 7.89569921 0.15963281 11.125 2.3125 C13.18187602 2.69798839 15.24553897 3.04787252 17.3125 3.375 C24.72507781 5.01400332 27.89770075 8.20640109 32.125 14.3125 C33.02412109 15.55966797 33.02412109 15.55966797 33.94140625 16.83203125 C38.125 22.84048724 38.125 22.84048724 38.125 25.3125 C39.0325 25.374375 39.94 25.43625 40.875 25.5 C55.66109084 27.68057501 70.40029115 38.5345258 79.3671875 50.19921875 C85.17002425 58.66412145 88.11412501 68.72731938 91.5625 78.3125 C92.30016706 80.32207947 93.03908912 82.33119873 93.77929688 84.33984375 C94.47767146 86.24699011 95.17497693 88.15452839 95.87109375 90.0625 C96.19911484 90.96137939 96.52713593 91.86025879 96.86509705 92.78637695 C97.16283524 93.61484131 97.46057343 94.44330566 97.76733398 95.296875 C98.03045883 96.02616211 98.29358368 96.75544922 98.56468201 97.50683594 C99.125 99.3125 99.125 99.3125 99.125 101.3125 C99.785 101.6425 100.445 101.9725 101.125 102.3125 C101.45833333 104.64583333 101.79166667 106.97916667 102.125 109.3125 C102.785 109.6425 103.445 109.9725 104.125 110.3125 C104.45833333 112.64583333 104.79166667 114.97916667 105.125 117.3125 C105.785 117.6425 106.445 117.9725 107.125 118.3125 C107.45833333 120.64583333 107.79166667 122.97916667 108.125 125.3125 C108.785 125.6425 109.445 125.9725 110.125 126.3125 C110.76782227 128.04833984 110.76782227 128.04833984 111.37890625 130.3984375 C112.66271456 134.93568846 114.20644978 139.32979019 115.90234375 143.7265625 C116.2836998 144.72172882 116.2836998 144.72172882 116.67276001 145.73699951 C117.72888078 148.4882509 118.78928826 151.23772379 119.86108398 153.98291016 C123.30572852 162.8272391 126.13570011 171.57330629 128.29833984 180.82055664 C129.04135543 183.95917211 129.89036513 187.03524189 130.8125 190.125 C134.07319885 202.38885068 134.04651186 216.66257006 127.578125 228.03125 C125.87913017 229.99522568 124.09757663 231.62750641 122.125 233.3125 C121.52816406 233.993125 120.93132812 234.67375 120.31640625 235.375 C108.75944809 248.44565538 89.51049936 249.14632329 73.25 251.1875 C72.09685303 251.34428223 70.94370605 251.50106445 69.75561523 251.66259766 C62.74114685 252.47803278 57.56144858 252.29273656 51.125 249.3125 C50.12210937 248.86390625 49.11921875 248.4153125 48.0859375 247.953125 C42.92291561 245.17663589 38.76491507 242.40096233 34.7890625 238.0859375 C33.06035489 236.24360592 31.23816072 234.63412643 29.3125 233 C18.90315711 223.90426443 10.99718577 214.06952307 2.96582031 202.87207031 C-1.75317678 196.31053642 -6.56080446 189.81321069 -11.3828125 183.32714844 C-12.68277356 181.57203086 -13.96752539 179.80694927 -15.25 178.0390625 C-19.01018263 173.03038174 -22.48712317 168.57537164 -28.875 167.3125 C-31.19178554 167.62612539 -31.19178554 167.62612539 -33.6328125 168.40625 C-34.60677979 168.69330811 -35.58074707 168.98036621 -36.58422852 169.27612305 C-43.06179482 171.31613113 -49.50279398 173.4545815 -55.9375 175.625 C-58.30187166 176.41932803 -60.66653553 177.21278199 -63.03121948 178.00617981 C-64.693719 178.56406356 -66.35609084 179.12232791 -68.01834106 179.68095398 C-74.38975555 181.82044286 -80.76967591 183.93341512 -87.15234375 186.0390625 C-89.97406182 186.97201803 -92.79563696 187.90540443 -95.61715698 188.83895874 C-97.43544187 189.43962112 -99.25421849 190.0387973 -101.07351685 190.63638306 C-119.04568547 195.36534131 -119.04568547 195.36534131 -133.875 205.3125 C-135.06574994 208.03334847 -136.03649216 210.62058186 -136.9375 213.4375 C-137.22206055 214.30697266 -137.50662109 215.17644531 -137.79980469 216.07226562 C-144.56138835 237.44759461 -150.01367013 259.43148315 -154.875 281.3125 C-155.535 280.9825 -156.195 280.6525 -156.875 280.3125 C-156.98980713 281.20855957 -157.10461426 282.10461914 -157.22290039 283.02783203 C-157.67082049 286.4269482 -158.141489 289.82141498 -158.62670898 293.21533203 C-158.83022799 294.67050089 -159.02522246 296.12689352 -159.21069336 297.58447266 C-161.52215487 315.64003991 -168.62515365 329.34381931 -183.125 340.875 C-194.69429684 348.59934755 -209.41851839 348.97306291 -222.8984375 348.83398438 C-225.40199864 348.81226578 -227.90276729 348.83406763 -230.40625 348.859375 C-238.61769452 348.87299173 -245.72103663 348.86080094 -252.875 344.3125 C-253.885625 343.735 -254.89625 343.1575 -255.9375 342.5625 C-265.52441664 335.21932981 -271.04673751 326.79728746 -274.875 315.3125 C-275.15549929 312.61508082 -275.39286602 309.93002009 -275.59375 307.2265625 C-275.65618896 306.42230835 -275.71862793 305.6180542 -275.78295898 304.78942871 C-275.98452851 302.17242213 -276.18001296 299.55500463 -276.375 296.9375 C-276.51236489 295.13134728 -276.64973469 293.32519494 -276.78710938 291.51904297 C-277.49820476 282.05909543 -278.10779402 272.61106957 -278.4609375 263.13037109 C-278.8102098 254.91743448 -279.60689662 246.74443156 -280.375 238.5625 C-281.33269369 228.35768992 -282.21838188 218.17766082 -282.73486328 207.93847656 C-283.03936859 202.23245025 -283.39096233 196.52910114 -283.74093628 190.82571411 C-283.87239666 188.66773502 -283.99987625 186.50954502 -284.12719727 184.35131836 C-284.20958009 183.001126 -284.2921723 181.65094639 -284.375 180.30078125 C-284.4471875 179.09977783 -284.519375 177.89877441 -284.59375 176.66137695 C-284.85947708 173.49733322 -285.35189532 170.44192774 -285.875 167.3125 C-287.03144769 150.99048509 -287.01495649 135.13043463 -277.5625 121.1875 C-273.62590696 115.18218715 -274.57296711 109.23715659 -274.875 102.3125 C-274.65487421 88.04834906 -274.65487421 88.04834906 -269.875 82.3125 C-269.27215923 80.98787229 -268.69009717 79.65366395 -268.125 78.3125 C-264.94999071 71.88892907 -259.41939076 68.73548792 -252.9375 66.125 C-246.66732879 64.01442344 -240.21104906 62.96905455 -233.6953125 61.92578125 C-231.57672252 61.58568041 -229.46018311 61.21881083 -227.3671875 60.74609375 C-223.87475914 60.1384769 -220.40896551 60.08858093 -216.875 60.0625 C-216.17632812 60.041875 -215.47765625 60.02125 -214.7578125 60 C-210.141851 59.96516255 -207.67405977 60.81113887 -203.875 63.3125 C-201.92917 63.76582007 -199.9687841 64.15993729 -198 64.5 C-191.46503845 66.05365507 -188.45124799 68.72225971 -184.875 74.3125 C-184.44703125 75.16070312 -184.0190625 76.00890625 -183.578125 76.8828125 C-180.15370913 83.63092613 -176.74997522 86.09006959 -169.63024902 88.60842896 C-162.6513334 89.91690474 -156.55051811 87.55699304 -150.015625 85.33984375 C-148.50015755 84.85974892 -146.98349997 84.38339695 -145.46575928 83.91053772 C-141.47470291 82.65650062 -137.50108699 81.3542999 -133.52941895 80.04034424 C-129.60662857 78.7509039 -125.67032045 77.50444377 -121.734375 76.25585938 C-117.07269686 74.77386629 -112.41271247 73.28724793 -107.75964355 71.77841187 C-92.19868005 66.73291495 -76.54826422 61.99570525 -60.875 57.3125 C-60.89141541 56.5204567 -60.90783081 55.72841339 -60.92474365 54.91236877 C-60.96999403 52.72903812 -61.01454263 50.54569284 -61.05847168 48.36233521 C-61.10745766 46.07066759 -61.16814247 43.77924269 -61.23535156 41.48803711 C-61.30286341 34.74610851 -60.75265882 30.8394466 -56.875 25.3125 C-56.07184634 23.16975688 -56.07184634 23.16975688 -55.5625 21.25 C-53.09004769 14.47364923 -47.65399838 11.52087423 -41.375 8.5625 C-34.37376933 5.594587 -28.15584161 4.2147506 -20.609375 3.6640625 C-18.03288642 3.33279968 -16.1324021 2.73805048 -13.75 1.75 C-9.19132533 0.05297512 -4.80778188 0.01258055 0 0 Z " fill="#0A080C" transform="translate(326.875,75.6875)"/>
<path d="M0 0 C-0.52400391 1.35544922 -0.52400391 1.35544922 -1.05859375 2.73828125 C-1.51363281 3.91777344 -1.96867188 5.09726563 -2.4375 6.3125 C-3.11619141 8.07013672 -3.11619141 8.07013672 -3.80859375 9.86328125 C-8.830737 23.08551412 -6.96426184 40.19431808 -1.74609375 53.1015625 C6.39344509 70.62264065 20.20264314 81.96659951 37.95703125 88.96484375 C55.57692193 94.95877318 76.58909561 93.48823028 93.375 85.88671875 C109.65582382 77.72428192 122.07384786 64.3715421 128 47 C129.53941222 40.7474721 130.33257613 34.39614543 131 28 C133.63896679 30.63896679 134.59313489 33.66493498 135.90625 37.0859375 C136.18709442 37.8061055 136.46793884 38.5262735 136.7572937 39.26826477 C137.67764811 41.63485654 138.58938148 44.00464642 139.5 46.375 C139.81302063 47.1855484 140.12604126 47.9960968 140.44854736 48.83120728 C175.44098034 139.46154168 175.44098034 139.46154168 167.5625 162.625 C162.75716199 172.13486473 154.91557494 179.24054031 145 183 C132.94761638 186.5990528 122.1563544 189.25853599 110.51538086 183.26171875 C84.82077433 169.32381538 65.176956 139.9242111 49.4296875 116.1484375 C44.86499216 109.27306581 41.13444988 103.71148329 33 101 C23.54652033 100.02249393 15.64095696 102.25391957 6.796875 105.3359375 C5.44380557 105.79218426 4.0900892 106.24651631 2.73577881 106.69906616 C-0.09112897 107.64544067 -2.91498378 108.60023346 -5.73706055 109.56091309 C-11.90896295 111.6542773 -18.11620809 113.63750631 -24.3205719 115.63202667 C-28.41426649 116.95128306 -32.50274337 118.28659217 -36.59186554 119.6199379 C-40.03508408 120.74228014 -43.47924969 121.86150127 -46.92578125 122.97363281 C-66.23623981 129.17273349 -66.23623981 129.17273349 -85.203125 136.3359375 C-86.33255524 136.78557358 -86.33255524 136.78557358 -87.48480225 137.24429321 C-92.71259703 139.47550337 -95.61453149 142.03389378 -98.01733398 147.17797852 C-98.25782471 147.90428467 -98.49831543 148.63059082 -98.74609375 149.37890625 C-99.02348389 150.20769287 -99.30087402 151.03647949 -99.58666992 151.89038086 C-99.86744385 152.77218018 -100.14821777 153.65397949 -100.4375 154.5625 C-100.73825439 155.48490479 -101.03900879 156.40730957 -101.34887695 157.35766602 C-103.88717936 165.30109921 -105.94849418 173.32941549 -107.8828125 181.4375 C-108.81221565 185.31507871 -109.90164056 189.12196198 -111.0625 192.9375 C-114.31942326 204.04546186 -116.1415155 215.586277 -118 227 C-118.66 227 -119.32 227 -120 227 C-120.11988281 227.94488281 -120.23976563 228.88976562 -120.36328125 229.86328125 C-122.86284582 247.22936599 -127.02748932 265.22404121 -141 277 C-153.27277866 284.7368745 -166.5017197 288.05648094 -180.9921875 285.46484375 C-192.41879514 282.56862602 -202.15845975 277.19257626 -208.8984375 267.1796875 C-216.47420302 253.61721947 -217.23003331 238.96913348 -218.40234375 223.765625 C-218.52560423 222.21277811 -218.64926615 220.65996303 -218.77330017 219.10717773 C-219.1001421 214.99933619 -219.42093509 210.89104487 -219.74019623 206.78260803 C-220.0044166 203.39105284 -220.27198644 199.99976518 -220.53953171 196.60847092 C-221.37047406 186.07314406 -222.18871164 175.53685715 -223 165 C-223.09835144 163.72318359 -223.19670288 162.44636719 -223.29803467 161.13085938 C-223.8328081 154.17123889 -224.35897988 147.21103513 -224.875 140.25 C-224.93630096 139.4310022 -224.99760193 138.61200439 -225.0607605 137.76818848 C-225.22836763 135.51753828 -225.39231581 133.26665822 -225.5546875 131.015625 C-225.64218262 129.81196289 -225.72967773 128.60830078 -225.81982422 127.36816406 C-226.00505609 123.90548256 -226.0315177 120.46694674 -226 117 C-223.73883908 119.90047726 -221.86520901 122.8963077 -220 126.0625 C-211.12065977 139.99451918 -197.74789788 150.02318342 -182 155 C-181.06285156 155.29777344 -180.12570313 155.59554687 -179.16015625 155.90234375 C-157.93952177 161.70925129 -136.97012466 157.1139152 -117.9375 146.875 C-102.81936398 137.7328811 -93.40645138 123.20621563 -88.25 106.58203125 C-84.17134439 89.67260487 -87.93195376 73.55971633 -95.890625 58.390625 C-101.79193203 48.90482037 -110.05654841 41.59603805 -119 35 C-115.30788895 32.97639937 -111.39379529 31.69248747 -107.41015625 30.37890625 C-106.63205093 30.12113907 -105.85394562 29.86337189 -105.05226135 29.59779358 C-93.57921403 25.83571922 -82.00129669 22.40752772 -70.4375 18.9375 C-68.10995681 18.23655797 -65.78248249 17.53538721 -63.45507812 16.83398438 C-53.17260914 13.73802452 -42.8850534 10.66218364 -32.57769775 7.65010071 C-28.51998152 6.4600515 -24.48041395 5.22217434 -20.44921875 3.9453125 C-19.48435547 3.64109375 -18.51949219 3.336875 -17.52539062 3.0234375 C-15.58055273 2.40772832 -13.63793602 1.78497144 -11.69726562 1.15625 C-10.74916016 0.85976562 -9.80105469 0.56328125 -8.82421875 0.2578125 C-7.98979248 -0.0088623 -7.15536621 -0.27553711 -6.2956543 -0.55029297 C-3.81995821 -1.03526927 -2.36516243 -0.80572588 0 0 Z " fill="#C96BE4" transform="translate(287,135)"/>
<path d="M0 0 C12.74784698 10.69701964 21.67039927 24.28764693 24 41 C25.00150508 58.89227344 21.80789258 75.4669076 9.625 89.375 C8.1065901 90.93957777 6.56527948 92.48231348 5 94 C4.278125 94.71929687 3.55625 95.43859375 2.8125 96.1796875 C-12.43400113 110.60941178 -31.66992396 114.63827521 -51.95800781 114.08447266 C-67.21598909 113.45328405 -80.30639233 107.53747735 -92 98 C-92.63164063 97.54238281 -93.26328125 97.08476562 -93.9140625 96.61328125 C-104.67383643 88.43290518 -112.19531934 73.67264818 -114.640625 60.56640625 C-116.59322576 41.18896612 -113.16068568 25.73438827 -101.375 9.8125 C-76.46476005 -19.76239878 -30.10792747 -23.71541862 0 0 Z " fill="#CA6CE4" transform="translate(174,177)"/>
<path d="M0 0 C2.45881954 1.91787924 4.75781074 3.91819275 7.0390625 6.04296875 C7.73257813 6.64625 8.42609375 7.24953125 9.140625 7.87109375 C19.62395956 17.50442821 26.69249181 30.74272192 27.34375 45.02734375 C27.73340536 63.3529023 23.256737 77.92565582 11.0390625 92.04296875 C5.44743955 97.85982345 -0.73558813 102.45919546 -7.9609375 106.04296875 C-9.09273438 106.605 -10.22453125 107.16703125 -11.390625 107.74609375 C-26.16433193 114.31071895 -46.19198727 115.21040753 -61.5234375 109.91796875 C-63.69497604 109.01940108 -65.8449855 108.06558823 -67.9609375 107.04296875 C-68.92257812 106.62015625 -69.88421875 106.19734375 -70.875 105.76171875 C-85.96220468 98.45186184 -97.53082961 84.76797521 -102.99609375 69.08984375 C-103.31449219 68.084375 -103.63289063 67.07890625 -103.9609375 66.04296875 C-104.33025391 64.90601563 -104.33025391 64.90601563 -104.70703125 63.74609375 C-108.51598184 49.77118537 -105.84291007 35.55807548 -99.3515625 22.90625 C-89.28371101 6.34971441 -74.53225714 -4.75889135 -55.7734375 -9.83203125 C-36.65144893 -13.74439937 -16.36990657 -10.81968759 0 0 Z " fill="#C96CE4" transform="translate(387.9609375,112.95703125)"/>
<path d="M0 0 C0.69867188 -0.020625 1.39734375 -0.04125 2.1171875 -0.0625 C6.61811714 -0.09646928 9.44494448 0.45300779 13 3.25 C13.99 4.735 13.99 4.735 15 6.25 C14.33097656 6.27578125 13.66195312 6.3015625 12.97265625 6.328125 C0.41981378 7.06950093 -11.42602011 9.59055604 -22.75 15.125 C-23.40516602 15.44025635 -24.06033203 15.7555127 -24.73535156 16.08032227 C-29.81156446 18.71960909 -33.39554765 22.04109529 -36 27.25 C-36.08342159 28.69848582 -36.10732861 30.15070869 -36.09765625 31.6015625 C-36.09443359 32.45234375 -36.09121094 33.303125 -36.08789062 34.1796875 C-36.07951172 35.06914062 -36.07113281 35.95859375 -36.0625 36.875 C-36.05798828 37.7721875 -36.05347656 38.669375 -36.04882812 39.59375 C-36.03702591 41.81256648 -36.02056155 44.03125018 -36 46.25 C-35.57614014 45.78464844 -35.15228027 45.31929687 -34.71557617 44.83984375 C-26.0308689 35.44887094 -14.04313107 29.26437702 -2 25.25 C0.33299825 25.21045766 2.66708189 25.20598268 5 25.25 C5 25.91 5 26.57 5 27.25 C3.81664063 27.61351562 2.63328125 27.97703125 1.4140625 28.3515625 C-7.33835995 31.10534183 -15.53656424 33.75453487 -23 39.25 C-23.97324219 39.94609375 -24.94648437 40.6421875 -25.94921875 41.359375 C-36.28555277 49.2964345 -43.71462597 59.8673999 -48 72.25 C-48.22300781 72.89324219 -48.44601563 73.53648437 -48.67578125 74.19921875 C-51.49375502 84.26341078 -51.32844181 97.35135275 -48 107.25 C-47.67 108.26449219 -47.34 109.27898437 -47 110.32421875 C-44.34420949 117.84604647 -40.92364314 123.9935586 -36 130.25 C-35.38898438 131.07371094 -34.77796875 131.89742187 -34.1484375 132.74609375 C-28.53146048 139.29242515 -20.61226251 144.27086278 -13 148.25 C-13 148.91 -13 149.57 -13 150.25 C-23.98938393 148.61830256 -34.43554401 138.88352564 -41 130.25 C-42.25696789 128.19372799 -43.48265153 126.11812527 -44.68261719 124.02807617 C-45.30593933 122.94636642 -45.92926147 121.86465668 -46.57147217 120.75016785 C-47.04288635 119.92511246 -47.51430054 119.10005707 -48 118.25 C-46.6963634 138.48732732 -45.23701196 158.70818486 -43.66143799 178.92596436 C-43.39165302 182.39196177 -43.12361995 185.85809462 -42.85546875 189.32421875 C-42.53971202 193.40482767 -42.22368829 197.48541489 -41.90617371 201.56588745 C-41.40769041 207.97467596 -40.91264507 214.38368163 -40.42700195 220.79345703 C-40.33692871 221.97860901 -40.24685547 223.16376099 -40.15405273 224.38482666 C-39.98675071 226.58945973 -39.82041721 228.79416661 -39.65527344 230.9989624 C-38.43674561 247.02812424 -36.43976235 262.78359757 -23.86328125 274.1875 C-12.26044798 283.64311964 -0.00337152 285.21978459 14.5625 284.04296875 C24.89102849 282.49708702 35.78612257 277.20591791 42.19140625 268.8581543 C48.45958448 259.81887946 51.43601222 250.12068313 53.875 239.5 C54.18179688 238.21867188 54.48859375 236.93734375 54.8046875 235.6171875 C55.54965076 232.49765384 56.28111855 229.37562729 57 226.25 C57.33 226.25 57.66 226.25 58 226.25 C57.03658092 243.49187939 55.19927959 259.11231429 43 272.25 C41.9171875 273.4565625 41.9171875 273.4565625 40.8125 274.6875 C27.13745254 287.14698768 11.88037797 288.95620628 -6.0234375 288.77148438 C-8.52699864 288.74976578 -11.02776729 288.77156763 -13.53125 288.796875 C-21.74269452 288.81049173 -28.84603663 288.79830094 -36 284.25 C-37.010625 283.6725 -38.02125 283.095 -39.0625 282.5 C-48.64941664 275.15682981 -54.17173751 266.73478746 -58 255.25 C-58.28049929 252.55258082 -58.51786602 249.86752009 -58.71875 247.1640625 C-58.78118896 246.35980835 -58.84362793 245.5555542 -58.90795898 244.72692871 C-59.10952851 242.10992213 -59.30501296 239.49250463 -59.5 236.875 C-59.63736489 235.06884728 -59.77473469 233.26269494 -59.91210938 231.45654297 C-60.62320476 221.99659543 -61.23279402 212.54856957 -61.5859375 203.06787109 C-61.9352098 194.85493448 -62.73189662 186.68193156 -63.5 178.5 C-64.45769369 168.29518992 -65.34338188 158.11516082 -65.85986328 147.87597656 C-66.16436859 142.16995025 -66.51596233 136.46660114 -66.86593628 130.76321411 C-66.99739666 128.60523502 -67.12487625 126.44704502 -67.25219727 124.28881836 C-67.33458009 122.938626 -67.4171723 121.58844639 -67.5 120.23828125 C-67.5721875 119.03727783 -67.644375 117.83627441 -67.71875 116.59887695 C-67.98447708 113.43483322 -68.47689532 110.37942774 -69 107.25 C-70.15644769 90.92798509 -70.13995649 75.06793463 -60.6875 61.125 C-56.75090696 55.11968715 -57.69796711 49.17465659 -58 42.25 C-57.77987421 27.98584906 -57.77987421 27.98584906 -53 22.25 C-52.39715923 20.92537229 -51.81509717 19.59116395 -51.25 18.25 C-48.07499071 11.82642907 -42.54439076 8.67298792 -36.0625 6.0625 C-29.79232879 3.95192344 -23.33604906 2.90655455 -16.8203125 1.86328125 C-14.70172252 1.52318041 -12.58518311 1.15631083 -10.4921875 0.68359375 C-6.99975914 0.0759769 -3.53396551 0.02608093 0 0 Z " fill="#060507" transform="translate(110,135.75)"/>
<path d="M0 0 C3.1940234 4.10889443 4.5443744 9.10720921 6.125 14 C6.52138672 15.19109375 6.52138672 15.19109375 6.92578125 16.40625 C8.186354 20.24555785 9.3391521 24.00267613 10 28 C12.33510198 27.4441712 14.6681777 26.88184546 17 26.3125 C17.71534912 26.13823486 18.43069824 25.96396973 19.16772461 25.78442383 C22.95164723 24.83978675 26.67655148 23.81420686 30.37890625 22.5859375 C31.08080078 22.35350342 31.78269531 22.12106934 32.50585938 21.8815918 C33.8437106 21.43008289 35.17741342 20.96602302 36.50585938 20.48754883 C41.02349243 18.96302433 44.35785542 19.02616529 49 20 C50.18299041 23.68246216 51.34340605 27.37167028 52.5 31.0625 C52.83386719 32.10083984 53.16773438 33.13917969 53.51171875 34.20898438 C55.20673449 39.65724927 56.45378629 44.28715477 56 50 C50.59882945 52.42471904 45.14559917 54.35015919 39.5 56.125 C38.27603516 56.52138672 38.27603516 56.52138672 37.02734375 56.92578125 C32.34357005 58.40684613 27.88431443 59.46167502 23 60 C24.34791338 64.65742429 25.7352914 69.28984384 27.34765625 73.86328125 C27.57880127 74.52642334 27.80994629 75.18956543 28.0480957 75.87280273 C28.51050407 77.19183266 28.98150507 78.5078864 29.46166992 79.82055664 C30.3574589 82.3917715 31.01803403 84.58729805 30.8984375 87.32421875 C29.62757023 89.69466248 28.39103908 90.03654211 25.875 90.9375 C24.98167969 91.26105469 24.08835937 91.58460938 23.16796875 91.91796875 C22.12253906 92.27503906 21.07710938 92.63210938 20 93 C18.72509449 93.45396137 17.45036346 93.90841294 16.17578125 94.36328125 C4.81519209 98.3301846 4.81519209 98.3301846 0 98 C-10 74.76595745 -10 74.76595745 -10 70 C-13.87555982 71.12307745 -17.75034567 72.24880289 -21.625 73.375 C-22.71941406 73.69210938 -23.81382813 74.00921875 -24.94140625 74.3359375 C-26.00488281 74.6453125 -27.06835938 74.9546875 -28.1640625 75.2734375 C-29.62513428 75.69761963 -29.62513428 75.69761963 -31.11572266 76.13037109 C-33.15652031 76.74568523 -35.18413203 77.40554941 -37.20068359 78.09619141 C-40.5169361 79.16690192 -41.85227622 79.57386189 -45 78 C-50.36431343 69.96342711 -53.69884926 57.52764496 -53 48 C-50.46411684 45.46411684 -48.40701736 45.06226585 -44.96875 44.0546875 C-43.76605469 43.70019531 -42.56335938 43.34570312 -41.32421875 42.98046875 C-40.06222656 42.61566406 -38.80023438 42.25085938 -37.5 41.875 C-36.23800781 41.50246094 -34.97601563 41.12992188 -33.67578125 40.74609375 C-24.29077953 38 -24.29077953 38 -22 38 C-22.23710693 37.3294458 -22.47421387 36.6588916 -22.71850586 35.96801758 C-23.79499379 32.91739693 -24.86629405 29.86497918 -25.9375 26.8125 C-26.31068359 25.75740234 -26.68386719 24.70230469 -27.06835938 23.61523438 C-27.42607422 22.59365234 -27.78378906 21.57207031 -28.15234375 20.51953125 C-28.48226318 19.58214111 -28.81218262 18.64475098 -29.15209961 17.67895508 C-30.78918192 12.50656688 -30.78918192 12.50656688 -31 10 C-27.95923024 5.348061 -21.04127738 4.38143086 -16.0625 2.75 C-14.96486328 2.37359375 -13.86722656 1.9971875 -12.73632812 1.609375 C-11.67994141 1.25875 -10.62355469 0.908125 -9.53515625 0.546875 C-8.569729 0.22557617 -7.60430176 -0.09572266 -6.60961914 -0.42675781 C-3.90471717 -1.02093031 -2.54052367 -1.04695218 0 0 Z " fill="#C86CE3" transform="translate(129,175)"/>
<path d="M0 0 C1.75 2.1875 1.75 2.1875 3 5 C3.5878125 6.2065625 3.5878125 6.2065625 4.1875 7.4375 C5.12739168 10.40177376 5.14378455 12.90863219 5 16 C5.66 16 6.32 16 7 16 C8.32 19.63 9.64 23.26 11 27 C19.42395851 26.38830177 26.84387657 24.00829649 34.82421875 21.3515625 C36.29568359 20.87976563 36.29568359 20.87976563 37.796875 20.3984375 C38.67698242 20.10630371 39.55708984 19.81416992 40.46386719 19.51318359 C43.35424114 18.92831971 45.19428451 19.13088346 48 20 C51.29664063 23.29664063 51.87829847 27.776324 53.125 32.1875 C53.40214844 33.12142578 53.67929687 34.05535156 53.96484375 35.01757812 C55.42986029 40.14513603 56.55144596 44.66228587 56 50 C53.43079221 52.56920779 51.3116261 52.94843041 47.8203125 53.9453125 C46.58152344 54.29980469 45.34273438 54.65429688 44.06640625 55.01953125 C43.41945801 55.20080566 42.77250977 55.38208008 42.10595703 55.56884766 C40.1369946 56.12163252 38.1719513 56.68694135 36.20703125 57.25390625 C26.52026099 60 26.52026099 60 22 60 C22.495 61.051875 22.99 62.10375 23.5 63.1875 C24.82779788 66.25452609 25.30715006 68.62134936 25 72 C25.66 72 26.32 72 27 72 C27.70453003 73.86866762 28.38791688 75.74531416 29.0625 77.625 C29.44535156 78.66914063 29.82820313 79.71328125 30.22265625 80.7890625 C31.07202161 84.2974963 30.68579441 86.5005257 30 90 C26.13003209 91.34825845 22.25330047 92.67592049 18.375 94 C17.28058594 94.3815625 16.18617188 94.763125 15.05859375 95.15625 C13.99511719 95.5171875 12.93164062 95.878125 11.8359375 96.25 C10.86188965 96.58515625 9.8878418 96.9203125 8.88427734 97.265625 C5.81481042 98.04715171 3.15420354 98.13091377 0 98 C-10 74.76595745 -10 74.76595745 -10 70 C-10.66008057 70.20157715 -11.32016113 70.4031543 -12.00024414 70.61083984 C-15.02080065 71.53286823 -18.04164759 72.45394155 -21.0625 73.375 C-22.10083984 73.69210938 -23.13917969 74.00921875 -24.20898438 74.3359375 C-26.23451919 74.95324335 -28.26135103 75.5663118 -30.28955078 76.17480469 C-31.89868681 76.66470559 -33.50347948 77.16997561 -35.09716797 77.70800781 C-39.07603496 79.01129758 -41.93787721 78.99076166 -46 78 C-47.18005601 74.12895002 -48.34164182 70.25259282 -49.5 66.375 C-49.83386719 65.28058594 -50.16773438 64.18617188 -50.51171875 63.05859375 C-50.82753906 61.99511719 -51.14335937 60.93164062 -51.46875 59.8359375 C-51.76201172 58.86188965 -52.05527344 57.8878418 -52.35742188 56.88427734 C-53.04584505 53.79421983 -53.25227528 51.15511544 -53 48 C-50.2951205 45.2951205 -47.89256071 45.04840339 -44.1875 44.125 C-37.04642074 42.30692311 -30.02577034 40.22739431 -23 38 C-24.17121873 31.32405323 -26.29008502 25.4746046 -29.05517578 19.31811523 C-30.27609222 16.47291064 -31.00987493 14.28597799 -30.90234375 11.171875 C-30 9 -30 9 -28.4609375 7.8125 C-27.42839844 7.4103125 -27.42839844 7.4103125 -26.375 7 C-25.17037109 6.52820313 -25.17037109 6.52820313 -23.94140625 6.046875 C-22.97074219 5.70140625 -22.00007813 5.3559375 -21 5 C-19.77152344 4.55140625 -18.54304688 4.1028125 -17.27734375 3.640625 C-5.37626649 -0.5621722 -5.37626649 -0.5621722 0 0 Z " fill="#C96CE3" transform="translate(348,109)"/>
<path d="M0 0 C0.99 0.99 0.99 0.99 2 2 C-0.475 2.99 -0.475 2.99 -3 4 C-2.67 4.66 -2.34 5.32 -2 6 C-2.89443817 6.24492439 -2.89443817 6.24492439 -3.8069458 6.49479675 C-21.21877597 11.27869534 -38.51220292 16.41804295 -55.77532959 21.70819092 C-58.4516839 22.52723657 -61.12920066 23.34244653 -63.8067131 24.15769672 C-67.03327639 25.14068287 -70.2587905 26.12708791 -73.484375 27.11328125 C-74.67069519 27.47472733 -75.85701538 27.8361734 -77.07928467 28.20857239 C-78.17943909 28.54620102 -79.27959351 28.88382965 -80.41308594 29.23168945 C-81.37470642 29.52590286 -82.3363269 29.82011627 -83.3270874 30.12324524 C-85.935562 30.97886338 -88.46378673 31.95113737 -91 33 C-90.3709375 33.4846875 -89.741875 33.969375 -89.09375 34.46875 C-73.51877438 46.66602006 -62.20216237 60.99808723 -59 81 C-57.6957732 98.44843956 -61.41054393 115.7129636 -72.72265625 129.47265625 C-75.34320247 132.46633561 -78.13346843 135.24221393 -81 138 C-81.57105469 138.59039062 -82.14210938 139.18078125 -82.73046875 139.7890625 C-97.0097783 153.51775601 -117.95231649 157.54654517 -136.98046875 157.2890625 C-146.83201282 156.9141623 -156.04695844 154.00591219 -165 150 C-164.01 149.01 -164.01 149.01 -163 148 C-158.78684098 148.50982765 -154.81416179 149.96927837 -150.79296875 151.28125 C-132.43272542 156.00612381 -111.36840178 153.40818235 -94.8984375 144.28125 C-79.14939592 134.35162172 -68.70467812 121.05989342 -64 103 C-60.48817759 85.76865804 -63.94963316 69.93223001 -73 55 C-75.75254661 51.37770796 -78.73491182 48.16287673 -82 45 C-82.64839844 44.35417969 -83.29679687 43.70835937 -83.96484375 43.04296875 C-101.31618341 26.75612845 -122.52642888 25.61004215 -145 26 C-145 25.34 -145 24.68 -145 24 C-159.01720457 25.77996248 -171.57313401 32.67069885 -182 42 C-183.66024165 43.34132517 -185.32536574 44.67668762 -187 46 C-187.11698258 42.79197767 -187.18750607 39.58450975 -187.25 36.375 C-187.28351563 35.47136719 -187.31703125 34.56773437 -187.3515625 33.63671875 C-187.43566546 27.87566598 -186.92826505 24.52619566 -183 20 C-171.66824177 8.87014392 -153.57494885 5.02060159 -138.19921875 4.17578125 C-135.99742161 4.06461507 -135.99742161 4.06461507 -133.9140625 3.453125 C-130.61152661 2.67130018 -127.91939716 3.47283636 -125 5 C-120.66428385 8.77961342 -117.92780804 13.08950425 -115.375 18.1875 C-112.17980118 23.56552463 -108.56601279 25.25480598 -102.77752686 27.3026123 C-95.64493187 28.61939553 -89.47602373 26.18514991 -82.7890625 23.921875 C-81.24963052 23.43461648 -79.70901929 22.95107005 -78.16732788 22.4710083 C-74.12312237 21.20107217 -70.09637204 19.8828241 -66.0715332 18.55297852 C-62.05030533 17.23316827 -58.01506493 15.95791879 -53.98046875 14.6796875 C-47.78875516 12.71248933 -41.60310931 10.72750036 -35.42285156 8.72460938 C-28.11071984 6.35680398 -20.79715925 3.99551303 -13.4609375 1.703125 C-12.53809967 1.40605652 -11.61526184 1.10898804 -10.66445923 0.80291748 C-9.82949921 0.54472229 -8.99453918 0.2865271 -8.13427734 0.02050781 C-7.07000015 -0.31506134 -7.07000015 -0.31506134 -5.98422241 -0.65740967 C-3.64424203 -1.06142418 -2.21973384 -0.81908596 0 0 Z " fill="#150F17" transform="translate(260,137)"/>
<path d="M0 0 C1.12559326 -0.00785522 1.12559326 -0.00785522 2.27392578 -0.01586914 C6.07210893 0.03273728 7.89569921 0.15963281 11.125 2.3125 C13.44608669 3.02062814 15.77877147 3.69274152 18.125 4.3125 C18.125 4.9725 18.125 5.6325 18.125 6.3125 C17.14402344 6.33828125 16.16304688 6.3640625 15.15234375 6.390625 C2.11963763 6.87446421 -9.57681495 9.44189952 -21.375 15.0625 C-22.02146484 15.36099854 -22.66792969 15.65949707 -23.33398438 15.96704102 C-28.59281715 18.6311984 -32.95307174 22.12298322 -35.875 27.3125 C-36.66317209 31.20212573 -36.54819971 34.8651774 -36.3125 38.8125 C-36.28091797 39.82570312 -36.24933594 40.83890625 -36.21679688 41.8828125 C-36.13492161 44.36246334 -36.02036301 46.83589766 -35.875 49.3125 C-35.215 49.3125 -34.555 49.3125 -33.875 49.3125 C-32.84850723 48.18724845 -31.87912304 47.00967355 -30.9375 45.8125 C-20.32434672 33.40125051 -4.74417547 26.14050989 11.125 23.3125 C22.69468215 22.50239405 22.69468215 22.50239405 28.125 24.3125 C28.125 24.9725 28.125 25.6325 28.125 26.3125 C27.155625 26.33828125 26.18625 26.3640625 25.1875 26.390625 C4.76002105 27.15739521 -12.86008666 32.62552548 -27.875 47.3125 C-38.65325253 59.89634013 -44.6115125 73.75696461 -44.22265625 90.41015625 C-42.57858139 108.86443477 -34.33705074 123.71391149 -20.328125 135.4453125 C-5.68395649 146.21857023 11.30630316 149.80046848 29.125 150.3125 C29.125 150.9725 29.125 151.6325 29.125 152.3125 C9.15991277 153.02085395 -9.20478106 149.38979781 -24.859375 136.21484375 C-39.08965381 122.78432867 -46.59469559 108.34145923 -47.26318359 88.74975586 C-47.46155877 77.68886646 -45.84021353 69.24292705 -40.875 59.3125 C-47.9370902 60.44990395 -54.59465548 62.38857642 -61.33984375 64.72338867 C-67.46013882 66.75724896 -67.46013882 66.75724896 -70.875 65.3125 C-70.400625 64.879375 -69.92625 64.44625 -69.4375 64 C-67.63813043 62.28940387 -67.63813043 62.28940387 -66.875 59.3125 C-63.8125 58.125 -63.8125 58.125 -60.875 57.3125 C-60.89594727 56.5918335 -60.91689453 55.87116699 -60.93847656 55.12866211 C-61.02207155 51.83591894 -61.07379778 48.5433997 -61.125 45.25 C-61.15851563 44.11626953 -61.19203125 42.98253906 -61.2265625 41.81445312 C-61.30665299 34.94669334 -60.82771428 30.94642546 -56.875 25.3125 C-56.07184634 23.16975688 -56.07184634 23.16975688 -55.5625 21.25 C-53.09004769 14.47364923 -47.65399838 11.52087423 -41.375 8.5625 C-34.37376933 5.594587 -28.15584161 4.2147506 -20.609375 3.6640625 C-18.03288642 3.33279968 -16.1324021 2.73805048 -13.75 1.75 C-9.19132533 0.05297512 -4.80778188 0.01258055 0 0 Z " fill="#090709" transform="translate(326.875,75.6875)"/>
<path d="M0 0 C0.99 0 1.98 0 3 0 C3.26554687 0.73605469 3.53109375 1.47210938 3.8046875 2.23046875 C4.15789063 3.20628906 4.51109375 4.18210938 4.875 5.1875 C5.39707031 6.63189453 5.39707031 6.63189453 5.9296875 8.10546875 C6.91501463 10.92594718 6.91501463 10.92594718 8.09765625 13.21875 C9.49176118 17.51573143 9.43398386 21.82070425 9.5625 26.3125 C9.78312891 33.73730856 9.78312891 33.73730856 10.5 41.125 C11.04153701 45.3219118 11.26120201 49.46352565 11.4375 53.6875 C11.79856581 61.34419707 12.42742572 68.94440502 13.19677734 76.56982422 C14.06249343 85.2893934 14.69465638 94.02273665 15.30249023 102.76367188 C15.7770176 109.52326745 15.7770176 109.52326745 16.54296875 116.25390625 C17.04893675 120.40111404 17.21997825 124.45197629 17.25 128.625 C17.270625 129.34945312 17.29125 130.07390625 17.3125 130.8203125 C17.3472231 135.61210027 16.63066548 138.84164685 14 143 C11.8125 144.375 11.8125 144.375 10 145 C8.3009831 142.9316316 7.10237376 141.44788522 6.5 138.8125 C6.335 138.214375 6.17 137.61625 6 137 C5.01 136.67 4.02 136.34 3 136 C1.96015805 132.88047414 1.70967377 130.31881008 1.47509766 127.04296875 C1.38465683 125.8046228 1.294216 124.56627686 1.20103455 123.29040527 C1.10524146 121.92277968 1.00958841 120.55514428 0.9140625 119.1875 C0.81171437 117.76027541 0.70909321 116.33307037 0.60621643 114.90588379 C0.33074277 111.0665196 0.06073911 107.22678943 -0.20776749 103.38693237 C-0.37460205 101.00567997 -0.54284467 98.62453106 -0.71151733 96.2434082 C-2.19129127 75.3355931 -3.58681315 54.42442043 -4.8125 33.5 C-4.87548279 32.42959473 -4.93846558 31.35918945 -5.00335693 30.25634766 C-5.17815835 27.26479774 -5.34978657 24.27309073 -5.51953125 21.28125 C-5.56927597 20.4188269 -5.61902069 19.55640381 -5.67027283 18.66784668 C-5.90429748 14.43857428 -6.05258961 10.2379533 -6 6 C-5.01 5.67 -4.02 5.34 -3 5 C-2.505 4.154375 -2.01 3.30875 -1.5 2.4375 C-1.005 1.633125 -0.51 0.82875 0 0 Z " fill="#8950F9" transform="translate(50,237)"/>
<path d="M0 0 C1.01900391 -0.01611328 2.03800781 -0.03222656 3.08789062 -0.04882812 C12.59849614 -0.05504827 12.59849614 -0.05504827 16.3125 3.3125 C18.04397686 5.52295455 19.60106414 7.65957937 21.125 10 C21.53169922 10.60650391 21.93839844 11.21300781 22.35742188 11.83789062 C23.35161514 13.32333233 24.33334534 14.81710258 25.3125 16.3125 C22.52872 17.11269587 20.18164476 17.40000968 17.29296875 17.26953125 C-5.43734592 16.54645667 -23.15053446 23.89013049 -39.6875 39.3125 C-41.37309985 40.96195205 -43.03345138 42.63113682 -44.6875 44.3125 C-46.60300232 40.48149536 -46.08933749 35.90303457 -46.1875 31.6875 C-46.24164063 30.71425781 -46.29578125 29.74101563 -46.3515625 28.73828125 C-46.45363807 23.32098516 -46.03065343 20.01299131 -42.4609375 15.8046875 C-30.96309201 4.44365182 -15.76246198 -0.05042374 0 0 Z " fill="#C86AE3" transform="translate(335.6875,82.6875)"/>
<path d="M0 0 C0.74515869 -0.01393799 1.49031738 -0.02787598 2.25805664 -0.04223633 C7.29519307 0.0012896 11.08616537 0.85874917 15.5625 3.375 C17.9609375 5.96875 17.9609375 5.96875 19.9375 8.875 C20.60523438 9.8340625 21.27296875 10.793125 21.9609375 11.78125 C23.5625 14.375 23.5625 14.375 24.5625 17.375 C23.45346313 17.3435791 23.45346313 17.3435791 22.32202148 17.31152344 C-1.49942477 16.72594763 -22.80208706 18.93021463 -40.9375 35.9375 C-41.7934375 36.78441406 -42.649375 37.63132813 -43.53125 38.50390625 C-45.4375 40.375 -45.4375 40.375 -46.4375 40.375 C-46.55448258 37.16697767 -46.62500607 33.95950975 -46.6875 30.75 C-46.72101563 29.84636719 -46.75453125 28.94273437 -46.7890625 28.01171875 C-46.87316546 22.25066598 -46.36576505 18.90119566 -42.4375 14.375 C-31.28475793 3.42097049 -15.07007894 0.18078532 0 0 Z " fill="#C86AE2" transform="translate(119.4375,142.625)"/>
<path d="M0 0 C5.37917512 3.8092529 6.85889828 9.11325431 8.8125 15.125 C9.27946289 16.48431641 9.27946289 16.48431641 9.75585938 17.87109375 C12 24.52953297 12 24.52953297 12 28 C12.69037354 27.79842285 13.38074707 27.5968457 14.09204102 27.38916016 C17.24880057 26.4675674 20.40564951 25.54628121 23.5625 24.625 C24.64853516 24.30789062 25.73457031 23.99078125 26.85351562 23.6640625 C28.96354114 23.04837116 31.07404185 22.43430558 33.18505859 21.82202148 C34.86775731 21.33063843 36.54854006 20.83250088 38.22509766 20.32055664 C42.23116265 19.10985123 44.92313299 18.79547111 49 20 C53.39051785 23.4822772 54.15225916 29.03691122 55.6875 34.1875 C56.00783203 35.20392578 56.32816406 36.22035156 56.65820312 37.26757812 C58.38548319 42.97239012 59.88092799 48.04545668 59 54 C55.08986314 59.07355565 47.85600241 60.11124651 41.9375 61.75 C40.30458008 62.22373047 40.30458008 62.22373047 38.63867188 62.70703125 C30.57357616 65 30.57357616 65 26 65 C26.24758057 65.63502441 26.49516113 66.27004883 26.75024414 66.92431641 C27.86922332 69.81903821 28.96598234 72.72169947 30.0625 75.625 C30.45244141 76.62402344 30.84238281 77.62304688 31.24414062 78.65234375 C34.81304919 88.19048876 34.81304919 88.19048876 33 93 C30.64549092 95.93492513 28.19174249 96.86002379 24.66796875 98.04296875 C23.09885742 98.56987305 23.09885742 98.56987305 21.49804688 99.10742188 C20.40556641 99.46384766 19.31308594 99.82027344 18.1875 100.1875 C17.10662109 100.55552734 16.02574219 100.92355469 14.91210938 101.30273438 C13.86216797 101.65013672 12.81222656 101.99753906 11.73046875 102.35546875 C10.77551514 102.67153076 9.82056152 102.98759277 8.83666992 103.31323242 C5.75835658 104.05850271 3.15588157 104.22862683 0 104 C-3.94831469 101.18673874 -5.0727074 97.75379545 -6.5625 93.25 C-6.98015625 92.01507813 -7.3978125 90.78015625 -7.828125 89.5078125 C-8.21484375 88.35023438 -8.6015625 87.19265625 -9 86 C-9.9773121 83.32402638 -10.98802429 80.66309398 -12 78 C-18.84819422 78.91541006 -25.40921446 81.01287095 -32.03320312 82.91601562 C-32.98259766 83.18220703 -33.93199219 83.44839844 -34.91015625 83.72265625 C-35.76746338 83.96765869 -36.62477051 84.21266113 -37.50805664 84.46508789 C-40.11833948 85.02540235 -42.33943063 85.218038 -45 85 C-49.97119178 80.80438889 -51.06859344 74.08453337 -52.75 68.0625 C-53.06582031 66.99064453 -53.38164062 65.91878906 -53.70703125 64.81445312 C-56.63264689 54.58746338 -56.63264689 54.58746338 -56 50 C-52.82038733 46.6518182 -49.65483813 45.29974109 -45.26171875 44.078125 C-44.19501953 43.77519531 -43.12832031 43.47226563 -42.02929688 43.16015625 C-40.92650391 42.85980469 -39.82371094 42.55945313 -38.6875 42.25 C-37.00430664 41.77626953 -37.00430664 41.77626953 -35.28710938 41.29296875 C-32.5275335 40.51793893 -29.76536888 39.75404702 -27 39 C-27.48815595 35.13659432 -27.95718974 31.55007064 -29.4375 27.9375 C-29.70046875 27.2671875 -29.9634375 26.596875 -30.234375 25.90625 C-30.48703125 25.2771875 -30.7396875 24.648125 -31 24 C-32.74495616 19.49984991 -33.71668783 15.83764284 -33 11 C-28.10927962 6.92976231 -22.48733148 5.19567397 -16.5 3.25 C-15.57574219 2.93417969 -14.65148437 2.61835937 -13.69921875 2.29296875 C-4.25902504 -0.82675192 -4.25902504 -0.82675192 0 0 Z M-11.546875 4.6796875 C-12.55621094 5.03160156 -13.56554687 5.38351563 -14.60546875 5.74609375 C-15.64316406 6.11863281 -16.68085938 6.49117188 -17.75 6.875 C-19.32974609 7.42220703 -19.32974609 7.42220703 -20.94140625 7.98046875 C-26.43313243 9.71768327 -26.43313243 9.71768327 -31 13 C-30.87380077 18.80516452 -28.6418632 23.51006689 -26.25390625 28.7421875 C-24.70872942 32.75675908 -23.834345 36.788991 -23 41 C-23.66531738 41.20157715 -24.33063477 41.4031543 -25.01611328 41.61083984 C-28.05266737 42.53137627 -31.08883631 43.45317681 -34.125 44.375 C-35.17171875 44.69210938 -36.2184375 45.00921875 -37.296875 45.3359375 C-45.73849534 47.16033243 -45.73849534 47.16033243 -53 51 C-52.5546339 58.0056795 -50.94840464 64.35792931 -48.9375 71.0625 C-48.65583984 72.02349609 -48.37417969 72.98449219 -48.08398438 73.97460938 C-47.39598716 76.31846429 -46.7012399 78.66007993 -46 81 C-41.22143728 82.11114672 -38.04302764 81.76865491 -33.359375 80.3828125 C-32.12445313 80.02316406 -30.88953125 79.66351563 -29.6171875 79.29296875 C-28.32809279 78.9037525 -27.03903064 78.51442839 -25.75 78.125 C-24.44563908 77.74237451 -23.14095373 77.36085318 -21.8359375 76.98046875 C-15.78771763 75.33507323 -15.78771763 75.33507323 -10 73 C-9.85304688 73.52464844 -9.70609375 74.04929687 -9.5546875 74.58984375 C-7.84886217 80.48180365 -5.90552452 86.27617266 -3.875 92.0625 C-3.60929199 92.8248999 -3.34358398 93.5872998 -3.06982422 94.37280273 C-2.01651158 97.96140851 -2.01651158 97.96140851 0 101 C7.15186524 100.60307509 13.33270557 98.80252866 20.0625 96.4375 C21.02349609 96.10814453 21.98449219 95.77878906 22.97460938 95.43945312 C25.31939027 94.63452834 27.66091146 93.82128851 30 93 C31.14817507 88.19066291 30.75636919 85.24464324 29.0625 80.625 C28.68222656 79.56539063 28.30195313 78.50578125 27.91015625 77.4140625 C27.60980469 76.61742187 27.30945313 75.82078125 27 75 C26.34 75 25.68 75 25 75 C24.87625 73.7625 24.7525 72.525 24.625 71.25 C24.24253695 68.1237803 23.69450477 65.71120763 22 63 C22.89074219 62.90589844 23.78148437 62.81179687 24.69921875 62.71484375 C30.52893186 61.8795109 36.15385822 60.15470236 41.8125 58.5625 C43.52856445 58.09360352 43.52856445 58.09360352 45.27929688 57.61523438 C46.36919922 57.31037109 47.45910156 57.00550781 48.58203125 56.69140625 C49.57436768 56.41498291 50.5667041 56.13855957 51.58911133 55.85375977 C54.14294893 55.14405418 54.14294893 55.14405418 56 53 C56.63812484 46.7347743 54.94112433 41.2280763 53.1875 35.25 C52.79594727 33.83267578 52.79594727 33.83267578 52.39648438 32.38671875 C52.13544922 31.48050781 51.87441406 30.57429688 51.60546875 29.640625 C51.36981201 28.82110352 51.13415527 28.00158203 50.89135742 27.15722656 C49.90770821 24.7766392 49.06925765 23.5312631 47 22 C39.99908605 22.24324565 33.72561994 24.56839996 27.15429688 26.828125 C21.7277179 28.62962559 16.70465279 29.54317095 11 30 C9.68 26.37 8.36 22.74 7 19 C6.34 19 5.68 19 5 19 C5.0825 18.195625 5.165 17.39125 5.25 16.5625 C4.93099452 12.01667184 3.34566703 6.34566703 0 3 C-4.25279921 2.7377364 -7.54293149 3.27557061 -11.546875 4.6796875 Z " fill="#F8ECFB" transform="translate(348,106)"/>
<path d="M0 0 C4.507026 0.55969604 7.16313745 3.44908948 10.48828125 6.30859375 C13.00583489 8.21770864 13.00583489 8.21770864 16.49609375 8.83203125 C20.85510605 10.28503535 22.4040998 12.5260217 24.75 16.25 C25.60907254 17.52670022 26.47114721 18.80138457 27.3359375 20.07421875 C27.77389648 20.72696777 28.21185547 21.3797168 28.66308594 22.05224609 C30.78630877 25.14557548 33.058963 28.11186969 35.375 31.0625 C35.82464111 31.63581055 36.27428223 32.20912109 36.73754883 32.79980469 C40.57063245 37.60756159 44.67892646 42.13257077 48.94091797 46.56274414 C52.05358933 49.82685137 54.75998587 53.0759657 57 57 C56.75 60.875 56.75 60.875 56 64 C54.45737855 63.71342606 52.91594394 63.42046123 51.375 63.125 C50.51648438 62.96257812 49.65796875 62.80015625 48.7734375 62.6328125 C41.70687541 61.02044199 38.12802405 58.7243639 33.1875 53.5625 C32.57003906 52.92924805 31.95257813 52.29599609 31.31640625 51.64355469 C26.20896372 46.34645294 21.50723932 40.81672619 17 35 C15.80385564 33.47358974 14.60719714 31.94758229 13.41015625 30.421875 C10.91513731 27.23337264 8.423122 24.04262081 5.94140625 20.84375 C5.42263916 20.17537109 4.90387207 19.50699219 4.36938477 18.81835938 C0.37230482 13.5107731 -1.61131414 7.7244555 -1 1 C-0.67 0.67 -0.34 0.34 0 0 Z " fill="#8950FA" transform="translate(320,249)"/>
<path d="M0 0 C3.38993123 -0.08474828 5.42590139 0.48855104 7.96875 2.75390625 C20 16.05769231 20 16.05769231 20 21 C21.36125 21.0928125 21.36125 21.0928125 22.75 21.1875 C37.53609084 23.36807501 52.27529115 34.2220258 61.2421875 45.88671875 C67.04502425 54.35162145 69.98912501 64.41481938 73.4375 74 C74.17516706 76.00957947 74.91408912 78.01869873 75.65429688 80.02734375 C76.35267146 81.93449011 77.04997693 83.84202839 77.74609375 85.75 C78.07411484 86.64887939 78.40213593 87.54775879 78.74009705 88.47387695 C79.03783524 89.30234131 79.33557343 90.13080566 79.64233398 90.984375 C79.90545883 91.71366211 80.16858368 92.44294922 80.43968201 93.19433594 C81 95 81 95 81 97 C81.66 97.33 82.32 97.66 83 98 C83.33333333 100.33333333 83.66666667 102.66666667 84 105 C84.66 105.33 85.32 105.66 86 106 C86.33333333 108.33333333 86.66666667 110.66666667 87 113 C87.66 113.33 88.32 113.66 89 114 C89.33333333 116.33333333 89.66666667 118.66666667 90 121 C90.66 121.33 91.32 121.66 92 122 C92.64282227 123.73583984 92.64282227 123.73583984 93.25390625 126.0859375 C94.53771456 130.62318846 96.08144978 135.01729019 97.77734375 139.4140625 C98.03158112 140.07750671 98.28581848 140.74095093 98.54776001 141.42449951 C99.60388078 144.1757509 100.66428826 146.92522379 101.73608398 149.67041016 C105.18072852 158.5147391 108.01070011 167.26080629 110.17333984 176.50805664 C110.91635543 179.64667211 111.76536513 182.72274189 112.6875 185.8125 C115.94819885 198.07635068 115.92151186 212.35007006 109.453125 223.71875 C107.75413017 225.68272568 105.97257663 227.31500641 104 229 C103.40316406 229.680625 102.80632812 230.36125 102.19140625 231.0625 C95.647572 238.46342689 86.83057337 242.32973363 77 243 C77.71875 241.0859375 77.71875 241.0859375 79 239 C81.03125 238.1640625 81.03125 238.1640625 83.5 237.625 C93.99630692 234.79266321 101.44730245 229.02493391 107.31640625 219.96875 C116.74357219 201.31150173 106.98707602 176.01557148 101.046875 157.73046875 C92.9535574 133.1375912 83.62195743 109.02851139 74 85 C73.82549316 86.13002441 73.65098633 87.26004883 73.47119141 88.42431641 C70.9809221 103.90581693 70.9809221 103.90581693 67.375 110.375 C67.02727539 111.02799072 66.67955078 111.68098145 66.32128906 112.35375977 C56.98838621 129.28577688 41.64446086 140.7376223 23.24609375 146.4765625 C19.21064619 147.41699723 15.12884709 147.75002805 11 148 C11 147.34 11 146.68 11 146 C6.05 146 1.1 146 -4 146 C-4 145.67 -4 145.34 -4 145 C-3.4330542 145.00636475 -2.8661084 145.01272949 -2.28198242 145.01928711 C16.04729499 145.08014496 32.58769587 142.08331963 47 130 C47.67804688 129.50371094 48.35609375 129.00742188 49.0546875 128.49609375 C59.50732459 120.38208169 67.32363909 106.05715978 69 93 C70.29062368 73.39949014 66.44060918 58.51760426 53.80078125 43.36328125 C42.35561686 31.26058497 26.38714783 24.28474657 10 22 C10 21.34 10 20.68 10 20 C9.01 19.67 8.02 19.34 7 19 C9.64 19 12.28 19 15 19 C13.40493802 16.68072602 11.79970244 14.36981059 10.1875 12.0625 C9.73568359 11.40314453 9.28386719 10.74378906 8.81835938 10.06445312 C8.37685547 9.43603516 7.93535156 8.80761719 7.48046875 8.16015625 C7.07723389 7.57886963 6.67399902 6.99758301 6.25854492 6.39868164 C4.47229492 4.4135359 2.60304505 4.06212923 0.00708008 3.79467773 C-0.73131104 3.75802002 -1.46970215 3.7213623 -2.23046875 3.68359375 C-3.43413086 3.62075195 -3.43413086 3.62075195 -4.66210938 3.55664062 C-5.49548828 3.51732422 -6.32886719 3.47800781 -7.1875 3.4375 C-8.03248047 3.39431641 -8.87746094 3.35113281 -9.74804688 3.30664062 C-11.83184433 3.20068482 -13.91590103 3.0998498 -16 3 C-16 2.67 -16 2.34 -16 2 C-10.72 2 -5.44 2 0 2 C0 1.34 0 0.68 0 0 Z " fill="#0C070E" transform="translate(345,80)"/>
<path d="M0 0 C5.40059841 3.73586981 6.86754592 9.13986536 8.8125 15.125 C9.27946289 16.48431641 9.27946289 16.48431641 9.75585938 17.87109375 C12 24.52953297 12 24.52953297 12 28 C13.31605225 27.59104492 13.31605225 27.59104492 14.65869141 27.17382812 C17.93305544 26.16073652 21.20956467 25.15526867 24.48779297 24.15478516 C25.90278046 23.72126945 27.31686241 23.28478601 28.72998047 22.84521484 C30.76816334 22.2117838 32.80942696 21.58930242 34.8515625 20.96875 C36.07697754 20.59169922 37.30239258 20.21464844 38.56494141 19.82617188 C41.90978553 19.02169764 44.58092281 18.66088499 48 19 C53.16479385 23.54471611 54.58585733 28.93639421 56.3125 35.4375 C56.57611328 36.35337891 56.83972656 37.26925781 57.11132812 38.21289062 C58.49150646 43.20662678 59.60034125 47.78164912 59 53 C56.87444564 56.66103587 54.92821937 57.70718408 50.921875 58.88671875 C49.92542969 59.18513672 48.92898437 59.48355469 47.90234375 59.79101562 C46.86207031 60.08685547 45.82179688 60.38269531 44.75 60.6875 C43.72519531 60.99494141 42.70039063 61.30238281 41.64453125 61.61914062 C36.43711742 63.15053581 31.40024005 64.42794067 26 65 C26.24758057 65.63502441 26.49516113 66.27004883 26.75024414 66.92431641 C27.86922332 69.81903821 28.96598234 72.72169947 30.0625 75.625 C30.45244141 76.62402344 30.84238281 77.62304688 31.24414062 78.65234375 C34.87154552 88.34682408 34.87154552 88.34682408 33 93 C30.0872291 95.58504285 27.20473824 96.81253386 23.53515625 98.04296875 C21.96411133 98.56987305 21.96411133 98.56987305 20.36132812 99.10742188 C19.27271484 99.46384766 18.18410156 99.82027344 17.0625 100.1875 C15.97775391 100.55552734 14.89300781 100.92355469 13.77539062 101.30273438 C12.72673828 101.65013672 11.67808594 101.99753906 10.59765625 102.35546875 C9.64383057 102.67153076 8.69000488 102.98759277 7.70727539 103.31323242 C4.98288619 104.00434134 2.79577875 104.23896312 0 104 C-4.37999971 100.93966749 -5.57887248 96.48848683 -7.1875 91.625 C-7.44724609 90.8825 -7.70699219 90.14 -7.97460938 89.375 C-9.37801929 85.26993534 -10.43098939 81.3189962 -11 77 C-14.18799874 77.78966706 -17.37530425 78.58209875 -20.5625 79.375 C-21.45775391 79.59671875 -22.35300781 79.8184375 -23.27539062 80.046875 C-27.16695867 81.01620331 -31.04321987 81.9940653 -34.88671875 83.140625 C-38.95779238 84.26438435 -41.79555023 84.42044498 -46 84 C-52.84912494 76.85164145 -55.1876655 62.44993596 -56.390625 52.8984375 C-56 50 -56 50 -53.83422852 47.93896484 C-50.93792171 45.95753073 -48.62684699 45.01388259 -45.26171875 44.078125 C-44.19501953 43.77519531 -43.12832031 43.47226563 -42.02929688 43.16015625 C-40.92650391 42.85980469 -39.82371094 42.55945313 -38.6875 42.25 C-37.00430664 41.77626953 -37.00430664 41.77626953 -35.28710938 41.29296875 C-32.5275335 40.51793893 -29.76536888 39.75404702 -27 39 C-27 34.66747921 -27.93746946 31.97865876 -29.4375 27.9375 C-29.88996094 26.70902344 -30.34242187 25.48054688 -30.80859375 24.21484375 C-31.20175781 23.15394531 -31.59492187 22.09304687 -32 21 C-33.20776206 17.37671381 -33.40040892 14.80388473 -33 11 C-28.79296097 6.5387857 -23.3017025 5.087044 -17.625 3.25 C-16.70460937 2.93417969 -15.78421875 2.61835938 -14.8359375 2.29296875 C-5.27144541 -0.86331364 -5.27144541 -0.86331364 0 0 Z M-16 5.8125 C-17.10601562 6.16892578 -18.21203125 6.52535156 -19.3515625 6.89257812 C-20.41117188 7.24384766 -21.47078125 7.59511719 -22.5625 7.95703125 C-23.53316406 8.27647705 -24.50382812 8.59592285 -25.50390625 8.92504883 C-28.04966427 10.02138808 -29.48468132 10.67410716 -31 13 C-30.69113423 16.67232596 -29.37159372 20.05531309 -28.15234375 23.51953125 C-27.79462891 24.54111328 -27.43691406 25.56269531 -27.06835938 26.61523438 C-26.69517578 27.67033203 -26.32199219 28.72542969 -25.9375 29.8125 C-25.56044922 30.88693359 -25.18339844 31.96136719 -24.79492188 33.06835938 C-23.86625342 35.71330118 -22.93451811 38.35712054 -22 41 C-23.00417969 41.24234375 -24.00835937 41.4846875 -25.04296875 41.734375 C-40.13516902 44.3555755 -40.13516902 44.3555755 -53 51 C-53.59911331 57.02225586 -52.04944879 61.99073416 -50.1875 67.625 C-49.92646484 68.45773438 -49.66542969 69.29046875 -49.39648438 70.1484375 C-48.01185542 74.44249667 -46.55831074 78.23551873 -44 82 C-37.81072775 81.424419 -32.32460928 80.02173748 -26.4375 78.0625 C-24.81148021 77.53168655 -23.18518232 77.0017242 -21.55859375 76.47265625 C-20.40593018 76.09584717 -20.40593018 76.09584717 -19.22998047 75.71142578 C-16.17174892 74.73576487 -13.0927673 73.85933266 -10 73 C-9.74347656 73.94101563 -9.48695312 74.88203125 -9.22265625 75.8515625 C-7.81974425 80.75866439 -6.12705194 85.56064788 -4.4375 90.375 C-4.12103516 91.28894531 -3.80457031 92.20289063 -3.47851562 93.14453125 C-3.17494141 94.01207031 -2.87136719 94.87960937 -2.55859375 95.7734375 C-2.28329834 96.56153809 -2.00800293 97.34963867 -1.72436523 98.16162109 C-1.14646015 99.98642619 -1.14646015 99.98642619 0 101 C6.66351173 100.56140858 12.58187422 98.71425819 18.875 96.5625 C19.82375 96.24990234 20.7725 95.93730469 21.75 95.61523438 C26.81988305 94.06443921 26.81988305 94.06443921 31 91 C30.74786212 83.82148632 27.59927207 76.73455018 25.12109375 70.1015625 C24.26329583 67.72842122 23.53897558 65.45869758 23 63 C23.80179687 62.85304687 24.60359375 62.70609375 25.4296875 62.5546875 C32.74931 61.11068034 39.74244572 59.24300817 46.8125 56.875 C47.6070459 56.60929199 48.4015918 56.34358398 49.22021484 56.06982422 C52.89335704 55.03800402 52.89335704 55.03800402 56 53 C56.6736399 46.2542449 54.54795648 40.43172372 52.5 34.0625 C52.16613281 32.99708984 51.83226562 31.93167969 51.48828125 30.83398438 C50.66766383 28.21973174 49.8380467 25.60870691 49 23 C42.22519804 21.28257821 37.12661178 23.14109606 30.625 25.3125 C23.78299676 27.53526017 17.05350729 29.56155183 10 31 C9.8664209 30.2776416 9.7328418 29.5552832 9.59521484 28.81103516 C8.62351297 24.22195582 7.09240964 19.82573832 5.625 15.375 C5.32078125 14.42109375 5.0165625 13.4671875 4.703125 12.484375 C4.40148437 11.56914062 4.09984375 10.65390625 3.7890625 9.7109375 C3.51787598 8.87868652 3.24668945 8.04643555 2.96728516 7.18896484 C1.93274388 4.8477995 1.02899203 3.55239582 -1 2 C-6.2318149 2 -11.07108436 4.17240045 -16 5.8125 Z " fill="#F8EDFB" transform="translate(129,172)"/>
<path d="M0 0 C3.51520834 2.3707219 5.79390381 5.02530762 7.6875 8.8125 C8.06114646 14.41719691 7.89610998 17.99958503 4.6875 22.8125 C0.71060557 27.07345832 -2.29718817 28.61786025 -8.140625 28.94140625 C-12.20554059 28.70014327 -14.92457565 27.22675354 -17.75390625 24.34375 C-21.37251152 20.13750798 -22.68132727 17.57348062 -22.58984375 11.97265625 C-21.94043195 6.91456149 -19.31434432 3.7211495 -15.625 0.375 C-10.195389 -2.18613726 -5.60803771 -2.01042861 0 0 Z " fill="#08040B" transform="translate(324.3125,153.1875)"/>
<path d="M0 0 C3.74605882 1.71269226 5.64346467 4.45331249 7.875 7.875 C9.46373142 12.28814283 9.99330401 15.69927021 8.0859375 20.1171875 C5.4979293 24.6754213 3.170548 27.43907985 -2 29 C-6.34382587 29.69760118 -10.18376392 29.99976298 -14.12890625 27.828125 C-17.55078454 25.05633214 -20.05733119 22.39912113 -21 18 C-21.45503372 13.22214592 -21.52947247 11.01972475 -19.3125 6.75 C-13.52908405 -0.12757573 -8.93938009 -1.39299283 0 0 Z " fill="#07040A" transform="translate(389,134)"/>
<path d="M0 0 C4.95520521 2.57289501 8.49116963 5.98233926 11 11 C11.40399154 16.25189007 10.88990343 19.56881474 8 24 C4.35081158 27.61026374 1.44380936 29.87968255 -3.75 30.3125 C-9.31809822 30.23180292 -12.37149578 27.54047696 -16.3125 23.8125 C-18.63907993 19.93486678 -19.19106309 16.49794346 -19 12 C-17.27222852 6.71505194 -14.32853311 4.22337572 -10 1 C-6.78360522 -0.60819739 -3.48855833 -0.46861231 0 0 Z " fill="#09070C" transform="translate(363,170)"/>
<path d="M0 0 C4.85978996 2.29735525 7.59883576 5.19767151 10 10 C10.67331951 15.30239115 10.2646963 18.948299 7.32421875 23.45703125 C4.49220217 26.75687357 1.28120993 28.56441464 -2.984375 29.37890625 C-8.10805853 29.68672445 -12.10104131 28.34619492 -16 25 C-18.86877827 21.65732326 -20.23929933 18.33577256 -20.5 13.9375 C-19.7966087 8.3982935 -17.50674473 5.73503938 -13.9375 1.625 C-9.39025114 -0.89049937 -5.07641098 -0.73160041 0 0 Z " fill="#08070B" transform="translate(344,115)"/>
<path d="M0 0 C1.01085436 2.39175361 2.00879203 4.78761585 3 7.1875 C3.42925781 8.19780273 3.42925781 8.19780273 3.8671875 9.22851562 C6.67024279 16.06930532 6.67024279 16.06930532 6 20 C3.10980959 23.95928905 -1.41592845 24.94594651 -6 26 C-12.31457623 26.90625863 -17.23738697 26.35023445 -22.484375 22.54296875 C-24 21 -24 21 -25.3125 17.75 C-24.87970536 12.55646435 -23.41774085 8.95894493 -20 5 C-13.39963392 0.57177347 -7.85361725 -1.33363312 0 0 Z " fill="#040204" transform="translate(162,202)"/>
<path d="M0 0 C4.06571729 4.06571729 5.12627222 9.2363357 5.4375 14.8125 C5.30290256 20.36464447 3.72273731 24.8260218 0 29 C-3.52156432 30.39533681 -5.47602114 30.47374624 -9.0859375 29.3515625 C-14.80133279 26.86568425 -17.49488549 23.54956172 -19.9375 17.7890625 C-22.80324853 10.08736333 -22.80324853 10.08736333 -21 6 C-17.9632293 3.31470739 -14.88115411 2.04054136 -11.0625 0.75 C-9.53302734 0.21632812 -9.53302734 0.21632812 -7.97265625 -0.328125 C-4.83605903 -1.03705367 -3.03992761 -0.97597676 0 0 Z " fill="#040204" transform="translate(129,185)"/>
<path d="M0 0 C5.95798586 0.11915972 10.58847137 2.07757563 15 6 C18.722889 11.48805189 20.71291917 17.3460877 20 24 C16.60636443 26.49277958 12.96509369 27.89458532 9 29.25 C7.4840625 29.78367187 7.4840625 29.78367187 5.9375 30.328125 C2.80812582 31.04388612 1.03198099 30.98960491 -2 30 C-5.98094914 26.01905086 -7.17488995 19.94524678 -7.5 14.4375 C-7.31288533 8.5122022 -4.08168819 4.08168819 0 0 Z " fill="#030104" transform="translate(131,231)"/>
<path d="M0 0 C3.4311232 1.86644161 6.24677364 4.24677364 9 7 C8.61670087 13.38831875 6.79117616 18.10544695 2.3125 22.75 C-3.18013251 25.71899055 -8.71045756 27.48381096 -15 27 C-16.36242895 24.01233855 -17.690726 21.01133021 -19 18 C-19.3196875 17.27296875 -19.639375 16.5459375 -19.96875 15.796875 C-21.14864145 12.93454574 -21.9763865 10.34633139 -22.1875 7.25 C-18.48225799 0.22954146 -7.07657756 -1.1481173 0 0 Z " fill="#030103" transform="translate(112,218)"/>
<path d="M0 0 C-2.5208599 3.78128985 -4.10262295 3.97260713 -8.3828125 5.35546875 C-9.38192154 5.6834848 -9.38192154 5.6834848 -10.4012146 6.01812744 C-11.86467057 6.49713131 -13.3297352 6.97124066 -14.79614258 7.44113159 C-17.15828081 8.19816607 -19.51604369 8.96761451 -21.87304688 9.74047852 C-25.34005507 10.87630416 -28.80864129 12.00712577 -32.27832031 13.13476562 C-41.63785377 16.18095785 -50.9801944 19.27912368 -60.32073975 22.38296509 C-63.4456256 23.41946445 -66.57255051 24.4496231 -69.69970703 25.47924805 C-87.35647118 30.18234423 -87.35647118 30.18234423 -102 40 C-103.19074994 42.72084847 -104.16149216 45.30808186 -105.0625 48.125 C-105.34706055 48.99447266 -105.63162109 49.86394531 -105.92480469 50.75976562 C-112.68638835 72.13509461 -118.13867013 94.11898315 -123 116 C-123.33 116 -123.66 116 -124 116 C-125.50508102 108.68707693 -124.16489731 102.79768479 -122.375 95.625 C-122.09648193 94.46959717 -121.81796387 93.31419434 -121.53100586 92.1237793 C-119.4309744 83.50363873 -117.2126508 74.92224996 -114.70800781 66.41064453 C-114.18868439 64.64243782 -113.67595243 62.87229167 -113.16699219 61.10107422 C-112.26894505 57.98048311 -111.35524429 54.86485004 -110.4375 51.75 C-110.15656494 50.77264893 -109.87562988 49.79529785 -109.58618164 48.78833008 C-107.20750788 40.84904844 -104.65442056 35.67426463 -97.46357727 31.30575562 C-92.71872505 28.79086903 -87.66528996 27.13006433 -82.59765625 25.38671875 C-80.77573509 24.74859505 -80.77573509 24.74859505 -78.91700745 24.09757996 C-74.95111174 22.71271469 -70.97695879 21.35272676 -67 20 C-66.32566673 19.77062996 -65.65133347 19.54125992 -64.95656586 19.30493927 C-55.8903022 16.22637616 -46.80503777 13.20703555 -37.70874023 10.21850586 C-34.07936873 9.02564207 -30.45402539 7.82095686 -26.82934475 6.61392689 C-23.99955126 5.67372845 -21.16717816 4.741508 -18.33400154 3.81155968 C-16.99298589 3.36992241 -15.6529323 2.92535215 -14.3139019 2.4777317 C-12.46913717 1.86190792 -10.62027699 1.25839312 -8.77124023 0.65551758 C-7.72540268 0.31039627 -6.67956512 -0.03472504 -5.60203552 -0.39030457 C-3 -1 -3 -1 0 0 Z " fill="#2E2730" transform="translate(295,241)"/>
<path d="M0 0 C1 1 1 1 1.0625 3.5625 C1.041875 4.366875 1.02125 5.17125 1 6 C-3.83096526 8.62073233 -8.63491005 10.24662984 -13.87890625 11.77734375 C-14.72742661 12.02996475 -15.57594696 12.28258575 -16.45018005 12.54286194 C-19.15276835 13.34630398 -21.85752951 14.14211936 -24.5625 14.9375 C-27.23467044 15.7288689 -29.90637458 16.52179442 -32.57797241 17.31509399 C-34.31118823 17.82890403 -36.04492884 18.3409473 -37.77920532 18.85116577 C-41.52040036 19.95368822 -45.25372443 21.06820872 -48.96435547 22.27001953 C-50.0988916 22.63595215 -51.23342773 23.00188477 -52.40234375 23.37890625 C-53.35488037 23.69545166 -54.30741699 24.01199707 -55.28881836 24.33813477 C-58.29639056 25.07235613 -60.91510147 25.18629889 -64 25 C-65 24 -65 24 -65.375 21.625 C-65 19 -65 19 -63.1484375 17.546875 C-58.67138324 15.34723048 -54.02905682 14.02288386 -49.25 12.625 C-48.22664551 12.31973389 -47.20329102 12.01446777 -46.14892578 11.69995117 C-43.10136778 10.79273015 -40.05117331 9.89497688 -37 9 C-35.38798261 8.52486925 -33.77599985 8.04962099 -32.1640625 7.57421875 C-30.04838127 6.95072641 -27.93227189 6.32911441 -25.81396484 5.71459961 C-21.47254245 4.45263211 -17.17441546 3.08481003 -12.875 1.6875 C-8.36497318 0.28588765 -4.70149821 -0.53426116 0 0 Z " fill="#8D52FE" transform="translate(267,160)"/>
<path d="M0 0 C2.25 0.125 2.25 0.125 5 1 C7.71242981 4.28779371 9.28624621 7.58983102 10.9375 11.5 C13.51795628 17.44800153 16.93739987 21.32861384 22.25 25 C25.30477224 27.17049607 25.88769847 27.62098232 27 31.375 C27 32.24125 27 33.1075 27 34 C24.56858625 36.43141375 23.35794581 36.99284108 19.875 37.0625 C12.51191586 35.58988317 5.71327729 30.71297734 1.18359375 24.8359375 C-2.928896 18.45682799 -4.19361944 11.53618547 -3 4 C-1.4765625 1.671875 -1.4765625 1.671875 0 0 Z " fill="#F9F9F9" transform="translate(85,371)"/>
<path d="M0 0 C3.125 0.4375 3.125 0.4375 5.4375 2.6875 C9.3116797 9.00097803 9.15820435 17.09306244 7.4765625 24.1640625 C5.21490617 30.40778041 1.27599424 37.36200288 -4.875 40.4375 C-7.2079866 40.47772391 -9.54206666 40.48070247 -11.875 40.4375 C-13.14867054 36.43453546 -13.28539493 34.42192833 -11.640625 30.4765625 C-10.56527537 28.40267392 -9.45932111 26.34430758 -8.3203125 24.3046875 C-5.323506 18.35967137 -5.57606856 12.06559522 -5.25390625 5.51953125 C-4.75405774 1.4537532 -4.05882188 0.61764681 0 0 Z " fill="#F9F9F9" transform="translate(436.875,261.5625)"/>
<path d="M0 0 C0.66 0.66 1.32 1.32 2 2 C1.625 4.625 1.625 4.625 1 7 C-9.06103069 10.42904042 -19.15905251 13.72939677 -29.3125 16.875 C-30.78795288 17.34015015 -30.78795288 17.34015015 -32.29321289 17.81469727 C-33.22383545 18.10014404 -34.15445801 18.38559082 -35.11328125 18.6796875 C-36.34751831 19.06229736 -36.34751831 19.06229736 -37.60668945 19.45263672 C-40.19124658 20.04373915 -42.35853759 20.2363165 -45 20 C-45.66 19.34 -46.32 18.68 -47 18 C-46.91479492 15.50097656 -46.91479492 15.50097656 -46 13 C-44.0168457 11.80371094 -44.0168457 11.80371094 -41.36328125 10.984375 C-40.36635254 10.66404297 -39.36942383 10.34371094 -38.34228516 10.01367188 C-37.23933105 9.67916016 -36.13637695 9.34464844 -35 9 C-33.25468994 8.42862305 -33.25468994 8.42862305 -31.47412109 7.84570312 C-28.35914189 6.82596992 -25.23805441 5.83058831 -22.10961914 4.85302734 C-20.1700987 4.24454068 -18.23459105 3.62422751 -16.29882812 3.00390625 C-14.43967773 2.42189453 -14.43967773 2.42189453 -12.54296875 1.828125 C-11.42946045 1.4765332 -10.31595215 1.12494141 -9.16870117 0.76269531 C-5.94709718 -0.01273353 -3.29825975 -0.29054333 0 0 Z " fill="#60DBE6" transform="translate(260,176)"/>
<path d="M0 0 C4.15594573 0.86582203 5.44578191 2.24238685 8 5.625 C11.74668548 12.96850355 12.23098588 21.32943808 10.37890625 29.296875 C8.10730216 35.79871069 4.20779029 41.12515886 -1 45.625 C-4.82043224 47.45368251 -7.75286408 48.16718756 -12 47.625 C-14.375 46 -14.375 46 -16 43.625 C-16.50724121 38.71240358 -15.37880347 35.73764926 -13.0625 31.4375 C-9.48018862 24.70478712 -8.7589479 19.49346848 -8.74609375 11.9609375 C-8.60590124 7.74040502 -8.34192847 6.05976997 -5.640625 2.625 C-3 0.625 -3 0.625 0 0 Z M-5 6.625 C-5.22929427 8.78442954 -5.35965683 10.95482668 -5.4375 13.125 C-5.89872008 20.89417275 -7.01561299 27.6898601 -11.25 34.3125 C-13.35810209 38.30283611 -13.05481243 40.31784924 -12 44.625 C-8.29475246 45.1653486 -6.14375947 45.31889489 -2.89453125 43.34765625 C2.89611742 38.55651917 6.54214514 33.03689762 8 25.625 C8.51452615 18.60963385 8.50086667 12.81884103 5 6.625 C3.11499729 4.30936913 3.11499729 4.30936913 0 4.375 C-3.11499729 4.30936913 -3.11499729 4.30936913 -5 6.625 Z " fill="#171319" transform="translate(437,257.375)"/>
<path d="M0 0 C3.38993123 -0.08474828 5.42590139 0.48855104 7.96875 2.75390625 C20 16.05769231 20 16.05769231 20 21 C21.36125 21.0928125 21.36125 21.0928125 22.75 21.1875 C37.1336773 23.30872918 50.99445435 33.52236972 60.08203125 44.51953125 C63.4342073 49.07330198 65.33873913 52.296625 66 58 C65.01 58.495 65.01 58.495 64 59 C63.61070312 58.24976563 63.22140625 57.49953125 62.8203125 56.7265625 C53.20724328 39.13951881 38.75482459 29.73486528 20 24 C16.68112563 23.16528912 13.38913045 22.472523 10 22 C10 21.34 10 20.68 10 20 C9.01 19.67 8.02 19.34 7 19 C9.64 19 12.28 19 15 19 C13.40493802 16.68072602 11.79970244 14.36981059 10.1875 12.0625 C9.73568359 11.40314453 9.28386719 10.74378906 8.81835938 10.06445312 C8.37685547 9.43603516 7.93535156 8.80761719 7.48046875 8.16015625 C7.07723389 7.57886963 6.67399902 6.99758301 6.25854492 6.39868164 C4.47229492 4.4135359 2.60304505 4.06212923 0.00708008 3.79467773 C-0.73131104 3.75802002 -1.46970215 3.7213623 -2.23046875 3.68359375 C-3.43413086 3.62075195 -3.43413086 3.62075195 -4.66210938 3.55664062 C-5.49548828 3.51732422 -6.32886719 3.47800781 -7.1875 3.4375 C-8.03248047 3.39431641 -8.87746094 3.35113281 -9.74804688 3.30664062 C-11.83184433 3.20068482 -13.91590103 3.0998498 -16 3 C-16 2.67 -16 2.34 -16 2 C-10.72 2 -5.44 2 0 2 C0 1.34 0 0.68 0 0 Z " fill="#262127" transform="translate(345,80)"/>
<path d="M0 0 C1 3 1 3 0.1015625 5.12890625 C-3.93477662 11.78139109 -8.55275146 17.44944158 -14 23 C-14.60328125 23.62777344 -15.2065625 24.25554687 -15.828125 24.90234375 C-30.61127278 39.07488325 -51.16116786 43.55725074 -70.98046875 43.2890625 C-80.83201282 42.9141623 -90.04695844 40.00591219 -99 36 C-98.34 35.34 -97.68 34.68 -97 34 C-92.78684098 34.50982765 -88.81416179 35.96927837 -84.79296875 37.28125 C-66.43272542 42.00612381 -45.36840178 39.40818235 -28.8984375 30.28125 C-17.86570215 23.32521014 -9.42014577 14.90189097 -3.33984375 3.3359375 C-2 1 -2 1 0 0 Z " fill="#110914" transform="translate(194,251)"/>
<path d="M0 0 C4.875 0.875 4.875 0.875 6 2 C7.34747084 2.23075082 8.70377565 2.41153063 10.0625 2.5625 C11.361875 2.706875 12.66125 2.85125 14 3 C14 8.28 14 13.56 14 19 C11.02148438 19.29296875 11.02148438 19.29296875 8.04296875 19.5859375 C5.70011858 19.92665391 5.70011858 19.92665391 3 22 C2.01 22 1.02 22 0 22 C-0.37125 20.329375 -0.37125 20.329375 -0.75 18.625 C-1.61005339 14.95384802 -1.61005339 14.95384802 -4.125 13.5625 C-4.74375 13.376875 -5.3625 13.19125 -6 13 C-6 11.68 -6 10.36 -6 9 C-5.38125 8.814375 -4.7625 8.62875 -4.125 8.4375 C-0.94397134 6.28562767 -0.80548053 3.62466237 0 0 Z " fill="#7F4AE7" transform="translate(379,138)"/>
<path d="M0 0 C0.99 0.495 0.99 0.495 2 1 C3.16825263 5.15345163 3.34273311 9.46539004 3.6484375 13.75268555 C3.70549866 14.5176384 3.76255981 15.28259125 3.8213501 16.07072449 C4.00877905 18.59251881 4.19185468 21.11461003 4.375 23.63671875 C4.50538792 25.39925891 4.63608939 27.16177589 4.76708984 28.92427063 C5.11130356 33.56445309 5.45200609 38.20488618 5.79174805 42.84539795 C6.33462822 50.2543122 6.88227278 57.6628742 7.43096924 65.07135963 C7.62113104 67.6468194 7.8094646 70.22240791 7.99755859 72.79801941 C8.5216846 79.93031065 9.04663721 87.0575782 9.8200531 94.16825867 C10.17545874 97.78605479 10.05855123 101.36982387 10 105 C9.01 104.67 8.02 104.34 7 104 C5.27649784 91.66045796 4.42724048 79.29621443 3.69775391 66.86694336 C3.27316831 59.24658295 3.27316831 59.24658295 2.47265625 51.66015625 C1.80290917 46.47376769 1.62081528 41.28770061 1.39453125 36.06640625 C1.22061886 32.36627027 0.96888707 28.76953383 0.47265625 25.09375 C-0.20352355 20.07070003 -0.10785939 15.05931639 -0.0625 10 C-0.05798828 9.03449219 -0.05347656 8.06898438 -0.04882812 7.07421875 C-0.03715417 4.71607911 -0.02078021 2.35807398 0 0 Z " fill="#11091A" transform="translate(59,253)"/>
<path d="M0 0 C2.74453516 6.94205952 2.74453516 6.94205952 1 11 C-1.61303544 12.60841671 -4.40355777 13.49812917 -7.3125 14.4375 C-8.08529297 14.71787109 -8.85808594 14.99824219 -9.65429688 15.28710938 C-15.37297201 17.22939371 -15.37297201 17.22939371 -18.20288086 16.1940918 C-20 15 -20 15 -20.828125 12.8359375 C-20.96734375 12.02382812 -21.1065625 11.21171875 -21.25 10.375 C-21.39953125 9.55773437 -21.5490625 8.74046875 -21.703125 7.8984375 C-21.85007813 6.95871094 -21.85007813 6.95871094 -22 6 C-18.44151856 3.72361849 -14.99570125 2.11587747 -11 0.75 C-9.989375 0.39421875 -8.97875 0.0384375 -7.9375 -0.328125 C-4.85278668 -1.03367113 -3.01143235 -0.86357251 0 0 Z " fill="#080409" transform="translate(242,220)"/>
<path d="M0 0 C3.88156193 0.14647404 6.23183978 0.31962952 9.1875 2.9375 C10.75575671 5.58731307 11.71821294 7.87796934 12.75 10.75 C15.57126406 18.18486059 20.83458716 23.32748594 26.9375 28.25 C29.11676118 30.06438488 29.96670031 30.92814277 31.1875 33.5625 C31 36 31 36 29.75 38.8125 C26.06302798 41.74531865 23.49701833 41.70799225 18.87890625 41.48046875 C11.1528711 40.19104904 4.67285331 35.14543984 0 29 C-4.28553586 22.03464805 -6.45677363 15.18134474 -5 7 C-3.77287031 4.2115669 -2.16518083 2.16518083 0 0 Z M-0.72265625 4.67578125 C-3.36859664 9.49025994 -2.75452405 15.30161739 -1.30859375 20.47265625 C2.54066284 29.86226542 8.05859316 34.46740692 17 39.03125 C20.49194216 40.15885632 22.49405875 39.99600604 26 39 C26.66 38.34 27.32 37.68 28 37 C27.94042668 33.0573293 27.46359848 31.45976709 24.63671875 28.65625 C23.17685547 27.58890625 23.17685547 27.58890625 21.6875 26.5 C14.86336435 21.20115565 11.90257251 16.30289572 9.02734375 8.26953125 C7.9459872 5.88067894 7.1092723 4.55286954 5 3 C1.0773134 2.53514183 1.0773134 2.53514183 -0.72265625 4.67578125 Z " fill="#140F16" transform="translate(84,368)"/>
<path d="M0 0 C2.875 0.3125 2.875 0.3125 6 1 C8.42540943 4.63811414 8.5483974 5.69116326 8 10 C6.52365438 13.44137707 4.81235413 16.72481718 3 20 C-2.51658831 18.42383191 -6.92231424 16.07768576 -11 12 C-11.1875 8.4375 -11.1875 8.4375 -11 5 C-10 4 -10 4 -8.15234375 3.90234375 C-6.1015625 3.93489583 -4.05078125 3.96744792 -2 4 C-1.34 2.68 -0.68 1.36 0 0 Z " fill="#54CFD3" transform="translate(340,119)"/>
<path d="M0 0 C2.8125 2.0625 2.8125 2.0625 5 4 C4.68044203 7.47600811 4.19995412 10.71201998 3 14 C-0.6445438 16.45305832 -2.82139724 17.04621972 -7.1875 16.875 C-10.15465918 15.95188381 -11.75952424 15.13582509 -14 13 C-14.68384196 9.46878162 -14.23183131 6.36553911 -13 3 C-9.33561713 -0.42687658 -4.73836534 -2.04902285 0 0 Z " fill="#54CDD2" transform="translate(364,176)"/>
<path d="M0 0 C5.13361251 0.93017291 8.77267182 4.07817023 13 7 C12.01 11.62 11.02 16.24 10 21 C5.39503026 21 4.35888432 20.15917792 0.75 17.5 C-0.14203125 16.8503125 -1.0340625 16.200625 -1.953125 15.53125 C-2.62859375 15.0259375 -3.3040625 14.520625 -4 14 C-3.00956295 9.16371695 -2.04301154 4.52381127 0 0 Z " fill="#804BE9" transform="translate(313,156)"/>
<path d="M0 0 C5.41735909 9.82735802 2.60804636 21.70870706 -0.29492188 31.96875 C-1.83347998 36.40116115 -4.51511714 39.02318014 -8 42 C-8.89525391 43.0209375 -8.89525391 43.0209375 -9.80859375 44.0625 C-16.352428 51.46342689 -25.16942663 55.32973363 -35 56 C-34.28125 54.0859375 -34.28125 54.0859375 -33 52 C-30.96875 51.1640625 -30.96875 51.1640625 -28.5 50.625 C-19.02856327 48.06921549 -11.59570118 43.08095481 -6 35 C-2.16396942 27.81563759 -1.47096026 21.41349099 -1.75 13.375 C-1.76804687 12.37082031 -1.78609375 11.36664063 -1.8046875 10.33203125 C-1.85126003 7.88697348 -1.91662972 5.44403188 -2 3 C-1.34 3 -0.68 3 0 3 C0 2.01 0 1.02 0 0 Z " fill="#28222A" transform="translate(457,267)"/>
<path d="M0 0 C1.21945312 -0.00257812 2.43890625 -0.00515625 3.6953125 -0.0078125 C6.875 0.125 6.875 0.125 9.875 1.125 C9.875 1.785 9.875 2.445 9.875 3.125 C8.905625 3.15078125 7.93625 3.1765625 6.9375 3.203125 C-12.29224777 3.92493692 -28.09391608 8.62783016 -43.00390625 21.42578125 C-44.99116348 23.0177829 -46.81358365 24.08412964 -49.125 25.125 C-49.785 25.455 -50.445 25.785 -51.125 26.125 C-46.94544195 16.43699879 -34.49457033 9.18986349 -25.15722656 5.30664062 C-16.81385133 2.17535942 -8.94754144 -0.0189969 0 0 Z " fill="#170C1A" transform="translate(345.125,98.875)"/>
<path d="M0 0 C0.33 0 0.66 0 1 0 C0.03658092 17.24187939 -1.80072041 32.86231429 -14 46 C-15.0828125 47.2065625 -15.0828125 47.2065625 -16.1875 48.4375 C-26.68292683 58 -26.68292683 58 -32 58 C-32 57.01 -32 56.02 -32 55 C-30.948125 54.50693359 -30.948125 54.50693359 -29.875 54.00390625 C-18.08316003 48.09196474 -12.087729 40.01713887 -7 28 C-5.46185611 23.13488093 -4.26664381 18.22133987 -3.125 13.25 C-2.81820312 11.96867187 -2.51140625 10.68734375 -2.1953125 9.3671875 C-1.45034924 6.24765384 -0.71888145 3.12562729 0 0 Z " fill="#140F15" transform="translate(167,362)"/>
<path d="M0 0 C4.21315902 0.50982765 8.18583821 1.96927837 12.20703125 3.28125 C19.75495363 5.2236524 27.25884275 5.12547562 35 5.0625 C36.06089844 5.05798828 37.12179688 5.05347656 38.21484375 5.04882812 C40.80995598 5.03713843 43.40494709 5.02075276 46 5 C46.495 6.485 46.495 6.485 47 8 C29.89413386 10.79418531 13.86599548 9.09901593 -2 2 C-1.34 1.34 -0.68 0.68 0 0 Z " fill="#180D1B" transform="translate(97,285)"/>
<path d="M0 0 C-3.077445 3.30044826 -6.36878825 5.75816419 -10.125 8.25 C-11.17945313 8.95640625 -12.23390625 9.6628125 -13.3203125 10.390625 C-16 12 -16 12 -18 12 C-18.53229326 10.73392393 -19.05044544 9.46189588 -19.5625 8.1875 C-19.85253906 7.47980469 -20.14257812 6.77210938 -20.44140625 6.04296875 C-21 4 -21 4 -20 1 C-13.34362157 -0.23839599 -6.7528064 -0.09139136 0 0 Z " fill="#09040A" transform="translate(276,214)"/>
<path d="M0 0 C2.97 0.99 5.94 1.98 9 3 C9 6.3 9 9.6 9 13 C7.329375 13.4640625 7.329375 13.4640625 5.625 13.9375 C2.2054845 14.82326483 2.2054845 14.82326483 0 16 C-0.268125 15.030625 -0.53625 14.06125 -0.8125 13.0625 C-1.204375 12.051875 -1.59625 11.04125 -2 10 C-2.99 9.67 -3.98 9.34 -5 9 C-3.50163895 5.88801935 -1.80066242 2.9465385 0 0 Z " fill="#040207" transform="translate(381,141)"/>
<path d="M0 0 C0.66 0 1.32 0 2 0 C7.71807971 14.15905451 5.81594415 30.16816761 0 44 C-0.99 44 -1.98 44 -3 44 C-2.70833333 42.6875 -2.41666667 41.375 -2.125 40.0625 C-1.94453125 39.22976562 -1.7640625 38.39703125 -1.578125 37.5390625 C-1.22869004 36.00438195 -0.85120899 34.4752101 -0.421875 32.9609375 C2.41104453 22.47913523 1.43374041 10.65064306 0 0 Z " fill="#1B0E1E" transform="translate(196,208)"/>
<path d="M0 0 C0.33 0 0.66 0 1 0 C1.43215587 4.96174703 1.85920792 9.92389861 2.28173828 14.88647461 C2.42587753 16.57116257 2.57135921 18.25573629 2.71826172 19.94018555 C2.93037789 22.37519263 3.13750386 24.81058326 3.34375 27.24609375 C3.40937134 27.98709824 3.47499268 28.72810272 3.54260254 29.49156189 C3.97512632 34.67695194 4.05399309 39.7964157 4 45 C3.01 44.67 2.02 44.34 1 44 C-0.7734767 31.01746182 -1.55064246 18.09164844 -2 5 C-1.67 5 -1.34 5 -1 5 C-0.67 3.35 -0.34 1.7 0 0 Z " fill="#140B1A" transform="translate(65,313)"/>
<path d="M0 0 C3.21680169 2.63192866 5.48851801 5.13278482 7 9 C7.1953125 12.015625 7.1953125 12.015625 7.125 15.25 C7.10695313 16.32765625 7.08890625 17.4053125 7.0703125 18.515625 C7.04710937 19.33546875 7.02390625 20.1553125 7 21 C6.34 21.33 5.68 21.66 5 22 C4.89042969 21.10796875 4.78085937 20.2159375 4.66796875 19.296875 C4.50941406 18.12640625 4.35085938 16.9559375 4.1875 15.75 C4.03667969 14.58984375 3.88585937 13.4296875 3.73046875 12.234375 C2.99644167 8.98424439 2.35760021 7.32351442 0 5 C-3.0842309 4.58297878 -3.0842309 4.58297878 -6 5 C-7.81115956 6.81115956 -7.38199448 9.61278227 -7.5625 12.0625 C-7.68818359 13.71958984 -7.68818359 13.71958984 -7.81640625 15.41015625 C-7.87699219 16.26480469 -7.93757813 17.11945313 -8 18 C-8.66 18 -9.32 18 -10 18 C-10.1079859 15.56131832 -10.18726589 13.12740867 -10.25 10.6875 C-10.28351563 9.99720703 -10.31703125 9.30691406 -10.3515625 8.59570312 C-10.45043128 3.47924352 -10.45043128 3.47924352 -8.16796875 1.05078125 C-5.14613799 -0.41385384 -3.32059249 -0.54213755 0 0 Z " fill="#0E0A0F" transform="translate(440,258)"/>
<path d="M0 0 C0.99 0.66 1.98 1.32 3 2 C2.67 4.31 2.34 6.62 2 9 C-1.75608363 10.82438348 -3.98949808 11.30070333 -8 10 C-8.66 9.34 -9.32 8.68 -10 8 C-9.625 4.375 -9.625 4.375 -9 1 C-5.58135526 -0.61436002 -3.58401153 -1.43360461 0 0 Z " fill="#030909" transform="translate(363,179)"/>
<path d="M0 0 C0.66 0.33 1.32 0.66 2 1 C0.81273229 4.56180312 -0.36792951 4.98083976 -3.60839844 6.60107422 C-4.23262695 6.89771973 -4.85685547 7.19436523 -5.5 7.5 C-6.13711914 7.80824707 -6.77423828 8.11649414 -7.43066406 8.43408203 C-15.69114389 12.36356092 -22.86509316 14.44694718 -32 15 C-32 14.34 -32 13.68 -32 13 C-36.95 13 -41.9 13 -47 13 C-47 12.67 -47 12.34 -47 12 C-46.4330542 12.00636475 -45.8661084 12.01272949 -45.28198242 12.01928711 C-28.78648717 12.07405634 -13.6784027 9.80429813 0 0 Z " fill="#170C1A" transform="translate(388,213)"/>
<path d="M0 0 C0.66 0.66 1.32 1.32 2 2 C0.35 2.66 -1.3 3.32 -3 4 C-2.67 4.66 -2.34 5.32 -2 6 C-3.60256108 6.50512244 -5.20711792 7.00391627 -6.8125 7.5 C-7.70582031 7.7784375 -8.59914062 8.056875 -9.51953125 8.34375 C-12 9 -12 9 -15 9 C-15 8.34 -15 7.68 -15 7 C-16.98 7.33 -18.96 7.66 -21 8 C-21 7.34 -21 6.68 -21 6 C-21.66 5.67 -22.32 5.34 -23 5 C-19.92209798 3.96225878 -16.83699754 2.94783083 -13.75 1.9375 C-12.87730469 1.64294922 -12.00460938 1.34839844 -11.10546875 1.04492188 C-10.26113281 0.77099609 -9.41679687 0.49707031 -8.546875 0.21484375 C-7.77182617 -0.04176025 -6.99677734 -0.29836426 -6.19824219 -0.56274414 C-3.72181938 -1.05533335 -2.34769197 -0.89392886 0 0 Z " fill="#15101A" transform="translate(260,137)"/>
<path d="M0 0 C0.33 0 0.66 0 1 0 C1.10957031 0.72445313 1.21914062 1.44890625 1.33203125 2.1953125 C2.64786504 10.21868925 4.57975309 17.49491987 11 23 C18.11029461 27.633631 18.11029461 27.633631 26.23046875 28.6953125 C27.14441406 28.46585937 28.05835937 28.23640625 29 28 C29.78375 27.814375 30.5675 27.62875 31.375 27.4375 C32.179375 27.2209375 32.179375 27.2209375 33 27 C31.8203125 28.96484375 31.8203125 28.96484375 30 31 C24.54388 32.29694656 19.19379531 31.50283709 14.25 28.9375 C5.86769196 23.56384181 1.37794022 17.38662652 -2 8 C-2 7.34 -2 6.68 -2 6 C-1.34 6 -0.68 6 0 6 C0 4.02 0 2.04 0 0 Z " fill="#18131A" transform="translate(81,378)"/>
<path d="M0 0 C1.32 0.33 2.64 0.66 4 1 C3.14285714 9.57142857 3.14285714 9.57142857 1 13 C-4.03985731 12.55530671 -6.37634988 10.28656638 -10 7 C-9.67 5.68 -9.34 4.36 -9 3 C-6.61435923 3.57584432 -4.33317216 4.22227595 -2 5 C-1.34 3.35 -0.68 1.7 0 0 Z " fill="#040A0A" transform="translate(341,122)"/>
<path d="M0 0 C2.9719385 1.12451727 5.33440687 2.22293791 8 4 C7.34 7.3 6.68 10.6 6 14 C2.54074837 12.7508258 -0.14693203 11.32472205 -3 9 C-2.5020163 5.26512223 -2.12508244 3.18762365 0 0 Z " fill="#090510" transform="translate(315,160)"/>
<path d="M0 0 C0 0.66 0 1.32 0 2 C-1.18335937 2.36351562 -2.36671875 2.72703125 -3.5859375 3.1015625 C-11.55960584 5.61494643 -19.0390488 8.02603254 -26.0546875 12.703125 C-27.97517672 13.98345114 -29.91750089 15.01011253 -32 16 C-31.39404069 13.23897571 -30.64579793 11.47562145 -28.33789062 9.77587891 C-26.17440729 8.54352153 -23.98293231 7.41395485 -21.75 6.3125 C-20.99847656 5.92255859 -20.24695313 5.53261719 -19.47265625 5.13085938 C-12.90487394 1.77819563 -7.50259788 -0.30010392 0 0 Z " fill="#100812" transform="translate(115,161)"/>
<path d="M0 0 C-0.33 1.65 -0.66 3.3 -1 5 C-3.91080728 6.03810444 -6.82937658 7.05237641 -9.75 8.0625 C-10.575 8.35705078 -11.4 8.65160156 -12.25 8.95507812 C-13.04921875 9.22900391 -13.8484375 9.50292969 -14.671875 9.78515625 C-15.4050293 10.04176025 -16.13818359 10.29836426 -16.89355469 10.56274414 C-19.27364818 11.05680388 -20.71574672 10.76066537 -23 10 C-19.13597734 6.39943343 -19.13597734 6.39943343 -17 5 C-14.875 5.3125 -14.875 5.3125 -13 6 C-10.36873617 4.99392854 -9.00773956 4.00773956 -7 2 C-4 0 -4 0 0 0 Z " fill="#050307" transform="translate(193,157)"/>
<path d="M0 0 C-1.98 0.99 -1.98 0.99 -4 2 C-3.67 2.66 -3.34 3.32 -3 4 C-4.47887733 4.33461467 -5.95811058 4.66765667 -7.4375 5 C-8.67306641 5.2784375 -8.67306641 5.2784375 -9.93359375 5.5625 C-12 6 -12 6 -13 6 C-13.99 6.66 -14.98 7.32 -16 8 C-17.9896995 8.39013716 -19.99019869 8.73202649 -22 9 C-22 7.68 -22 6.36 -22 5 C-18.71193412 3.96730705 -15.41906296 2.95088499 -12.125 1.9375 C-11.18785156 1.64294922 -10.25070313 1.34839844 -9.28515625 1.04492188 C-8.38925781 0.77099609 -7.49335938 0.49707031 -6.5703125 0.21484375 C-5.74289551 -0.04176025 -4.91547852 -0.29836426 -4.06298828 -0.56274414 C-2 -1 -2 -1 0 0 Z " fill="#2C2833" transform="translate(222,148)"/>
<path d="M0 0 C0.99 0 1.98 0 3 0 C4.18823797 3.56471391 4.26274852 6.2558336 4 10 C2.625 12.4375 2.625 12.4375 1 14 C0.34 14 -0.32 14 -1 14 C-1.22331199 12.41870971 -1.42804644 10.83478911 -1.625 9.25 C-1.74101562 8.36828125 -1.85703125 7.4865625 -1.9765625 6.578125 C-2.00207817 3.77140122 -1.44843844 2.36615134 0 0 Z " fill="#120A19" transform="translate(394,142)"/>
<path d="M0 0 C0.33 0 0.66 0 1 0 C1 4.29 1 8.58 1 13 C1.66 13 2.32 13 3 13 C2.00481422 19.50799121 0.60861828 24.4667853 -3 30 C-3.99 30 -4.98 30 -6 30 C-5.731875 29.34 -5.46375 28.68 -5.1875 28 C-4.795625 27.01 -4.40375 26.02 -4 25 C-3.484375 23.9275 -2.96875 22.855 -2.4375 21.75 C0.16653332 14.96373134 -0.23649112 7.17628231 0 0 Z " fill="#130D15" transform="translate(429,263)"/>
<path d="M0 0 C1.1577506 3.47325181 1.06866652 6.36067448 1 10 C5.455 9.505 5.455 9.505 10 9 C10 9.99 10 10.98 10 12 C1.95398139 13.58169597 1.95398139 13.58169597 -1.5625 11.4375 C-3.39039788 8.33802098 -3.52779476 6.54376481 -3 3 C-1.5 1.125 -1.5 1.125 0 0 Z " fill="#150F17" transform="translate(424,292)"/>
<path d="M0 0 C0.66 0 1.32 0 2 0 C3.20484722 5.63526965 3.1129643 11.14536115 3.0625 16.875 C3.05798828 17.84953125 3.05347656 18.8240625 3.04882812 19.828125 C3.03710906 22.21881434 3.02070219 24.6093744 3 27 C-1.85528068 19.71707899 -0.10057854 8.48212389 0 0 Z " fill="#0A050D" transform="translate(62,294)"/>
<path d="M0 0 C-0.33 0.99 -0.66 1.98 -1 3 C-3.80855941 4.07612171 -6.48834858 4.95286914 -9.375 5.75 C-10.15617187 5.98332031 -10.93734375 6.21664062 -11.7421875 6.45703125 C-17.60195132 8.13268289 -17.60195132 8.13268289 -21 7 C-18.41501117 3.12251675 -16.62025097 3.02396388 -12.1875 1.8125 C-10.96417969 1.46832031 -9.74085938 1.12414062 -8.48046875 0.76953125 C-5.49116254 0.10859598 -3.03724216 -0.16777147 0 0 Z " fill="#6BD0E6" transform="translate(281,224)"/>
<path d="M0 0 C0 0.99 0 1.98 0 3 C-2.58122508 3.84039886 -5.16463901 4.67250556 -7.75 5.5 C-8.47960937 5.73847656 -9.20921875 5.97695312 -9.9609375 6.22265625 C-10.66992188 6.44824219 -11.37890625 6.67382812 -12.109375 6.90625 C-13.08342285 7.22045898 -13.08342285 7.22045898 -14.07714844 7.54101562 C-16 8 -16 8 -20 8 C-19.67 7.01 -19.34 6.02 -19 5 C-16.35969246 3.95155573 -13.84287551 3.09477547 -11.125 2.3125 C-10.39152344 2.08755859 -9.65804687 1.86261719 -8.90234375 1.63085938 C-5.8474806 0.71551331 -3.20488959 0 0 0 Z " fill="#68D4E6" transform="translate(246,234)"/>
<path d="M0 0 C-0.33 0.66 -0.66 1.32 -1 2 C0.32 2.33 1.64 2.66 3 3 C-0.79541663 5.21399303 -4.75629421 6.00980198 -9 7 C-9 6.34 -9 5.68 -9 5 C-9.66 4.67 -10.32 4.34 -11 4 C-10.01 4 -9.02 4 -8 4 C-8 3.34 -8 2.68 -8 2 C-8.66 1.67 -9.32 1.34 -10 1 C-3.71428571 -1.42857143 -3.71428571 -1.42857143 0 0 Z " fill="#08050B" transform="translate(201,155)"/>
<path d="M0 0 C0.33 0 0.66 0 1 0 C1.74805717 7.02639415 2.13794954 13.93391809 2 21 C1.34 21 0.68 21 0 21 C0 23.31 0 25.62 0 28 C-0.33 28 -0.66 28 -1 28 C-1.33 20.41 -1.66 12.82 -2 5 C-1.67 5 -1.34 5 -1 5 C-0.67 3.35 -0.34 1.7 0 0 Z " fill="#261534" transform="translate(62,273)"/>
<path d="M0 0 C0.66 0 1.32 0 2 0 C3.17495143 2.93425371 4.33850852 5.87289513 5.5 8.8125 C5.83386719 9.64587891 6.16773438 10.47925781 6.51171875 11.33789062 C6.82753906 12.14033203 7.14335937 12.94277344 7.46875 13.76953125 C7.76201172 14.50792236 8.05527344 15.24631348 8.35742188 16.00708008 C9 18 9 18 9 21 C8.01 21 7.02 21 6 21 C4.99263372 18.06497405 3.99539496 15.12660539 3 12.1875 C2.71382813 11.35412109 2.42765625 10.52074219 2.1328125 9.66210938 C1.72675781 8.45844727 1.72675781 8.45844727 1.3125 7.23046875 C1.06113281 6.49207764 0.80976563 5.75368652 0.55078125 4.99291992 C0 3 0 3 0 0 Z " fill="#110E11" transform="translate(443,226)"/>
<path d="M0 0 C0.33 0 0.66 0 1 0 C1.70132913 6.70019789 2.11044961 13.26257354 2 20 C1.34 20 0.68 20 0 20 C0 22.31 0 24.62 0 27 C-0.33 27 -0.66 27 -1 27 C-1.33 19.74 -1.66 12.48 -2 5 C-1.67 5 -1.34 5 -1 5 C-0.67 3.35 -0.34 1.7 0 0 Z " fill="#261536" transform="translate(65,313)"/>
<path d="M0 0 C1.9375 0.6875 1.9375 0.6875 2.9375 2.6875 C-1.6825 3.3475 -6.3025 4.0075 -11.0625 4.6875 C-11.0625 4.0275 -11.0625 3.3675 -11.0625 2.6875 C-16.0125 2.6875 -20.9625 2.6875 -26.0625 2.6875 C-26.0625 2.3575 -26.0625 2.0275 -26.0625 1.6875 C-25.07854248 1.64991577 -25.07854248 1.64991577 -24.07470703 1.61157227 C-21.11209817 1.4957674 -18.14981969 1.37297114 -15.1875 1.25 C-14.15496094 1.21068359 -13.12242187 1.17136719 -12.05859375 1.13085938 C-11.07246094 1.08896484 -10.08632813 1.04707031 -9.0703125 1.00390625 C-8.15910645 0.96724854 -7.24790039 0.93059082 -6.30908203 0.89282227 C-3.7912774 0.66271211 -2.50834964 -0.38005298 0 0 Z " fill="#25132A" transform="translate(367.0625,223.3125)"/>
<path d="M0 0 C3.15234375 -0.328125 3.15234375 -0.328125 6.9375 -0.25 C8.18402344 -0.23453125 9.43054688 -0.2190625 10.71484375 -0.203125 C14 0 14 0 17 1 C17 1.66 17 2.32 17 3 C10.73 3 4.46 3 -2 3 C-1.34 2.01 -0.68 1.02 0 0 Z " fill="#120914" transform="translate(338,99)"/>
<path d="M0 0 C-1.98 0.99 -1.98 0.99 -4 2 C-3.67 2.66 -3.34 3.32 -3 4 C-4.47887733 4.33461467 -5.95811058 4.66765667 -7.4375 5 C-8.67306641 5.2784375 -8.67306641 5.2784375 -9.93359375 5.5625 C-12 6 -12 6 -13 6 C-13.99 6.33 -14.98 6.66 -16 7 C-16 6.34 -16 5.68 -16 5 C-16.66 4.67 -17.32 4.34 -18 4 C-15.37764986 3.13683464 -12.75266548 2.28419221 -10.125 1.4375 C-9.37863281 1.19064453 -8.63226563 0.94378906 -7.86328125 0.68945312 C-2.2265625 -1.11328125 -2.2265625 -1.11328125 0 0 Z " fill="#322F38" transform="translate(189,158)"/>
<path d="M0 0 C-1 3 -1 3 -2.890625 3.94921875 C-10.75674619 6.41063747 -10.75674619 6.41063747 -15 6 C-14 3 -14 3 -11.6015625 1.796875 C-10.61929688 1.45140625 -9.63703125 1.1059375 -8.625 0.75 C-7.64789063 0.39421875 -6.67078125 0.0384375 -5.6640625 -0.328125 C-3 -1 -3 -1 0 0 Z " fill="#2C262E" transform="translate(219,266)"/>
<path d="M0 0 C0.66 0.66 1.32 1.32 2 2 C1.54625 2.825 1.0925 3.65 0.625 4.5 C-1.16307742 8.35124368 -2.07368903 11.86722799 -3 16 C-3.99 15.67 -4.98 15.34 -6 15 C-3.91881919 4.83763838 -3.91881919 4.83763838 -2 1 C-1.34 0.67 -0.68 0.34 0 0 Z " fill="#130A16" transform="translate(287,136)"/>
<path d="M0 0 C-0.33 0.99 -0.66 1.98 -1 3 C-2.9609375 3.94921875 -2.9609375 3.94921875 -5.375 4.6875 C-6.56222656 5.06455078 -6.56222656 5.06455078 -7.7734375 5.44921875 C-10 6 -10 6 -13 6 C-12.7734375 4.11328125 -12.7734375 4.11328125 -12 2 C-10.0390625 0.91796875 -10.0390625 0.91796875 -7.625 0.1875 C-6.83351563 -0.06644531 -6.04203125 -0.32039062 -5.2265625 -0.58203125 C-3 -1 -3 -1 0 0 Z " fill="#2D272E" transform="translate(277,247)"/>
<path d="M0 0 C0 0.66 0 1.32 0 2 C-5.28 3.65 -10.56 5.3 -16 7 C-15 3 -15 3 -13.3984375 1.953125 C-8.71765272 0.32659747 -4.9553531 -0.30970957 0 0 Z " fill="#120914" transform="translate(115,161)"/>
<path d="M0 0 C0.33 0.99 0.66 1.98 1 3 C-3.62 3.33 -8.24 3.66 -13 4 C-13 3.67 -13 3.34 -13 3 C-15.31 2.67 -17.62 2.34 -20 2 C-20 1.67 -20 1.34 -20 1 C-17.79187393 0.83060951 -15.58348776 0.66460778 -13.375 0.5 C-12.14523438 0.4071875 -10.91546875 0.314375 -9.6484375 0.21875 C-6.41962143 0.02515931 -3.23321325 -0.03979339 0 0 Z " fill="#1E1022" transform="translate(143,290)"/>
<path d="M0 0 C6.93 0.33 13.86 0.66 21 1 C21 1.66 21 2.32 21 3 C18.4374282 3.02710123 15.87514635 3.04688771 13.3125 3.0625 C12.2306543 3.07506836 12.2306543 3.07506836 11.12695312 3.08789062 C7.28444618 3.10543632 3.73360474 2.93524221 0 2 C0 1.34 0 0.68 0 0 Z " fill="#010001" transform="translate(335,225)"/>
<path d="M0 0 C0.33 0.99 0.66 1.98 1 3 C1.66 3 2.32 3 3 3 C3.33 5.64 3.66 8.28 4 11 C1.03 11 -1.94 11 -5 11 C-4.67 10.01 -4.34 9.02 -4 8 C-2.35 8 -0.7 8 1 8 C0.67 7.34 0.34 6.68 0 6 C-0.039992 4.00039988 -0.04346799 1.99952758 0 0 Z " fill="#7645D8" transform="translate(389,146)"/>
<path d="M0 0 C0.66 0.66 1.32 1.32 2 2 C0.35 2.66 -1.3 3.32 -3 4 C-2.67 4.66 -2.34 5.32 -2 6 C-2.99 6 -3.98 6 -5 6 C-5 5.34 -5 4.68 -5 4 C-6.98 4.33 -8.96 4.66 -11 5 C-10.01 4.67 -9.02 4.34 -8 4 C-8 3.34 -8 2.68 -8 2 C-8.66 1.67 -9.32 1.34 -10 1 C-3.51394422 -1.5059761 -3.51394422 -1.5059761 0 0 Z " fill="#2B2434" transform="translate(260,137)"/>
<path d="M0 0 C-0.6796875 1.921875 -0.6796875 1.921875 -2 4 C-4.3828125 4.828125 -4.3828125 4.828125 -7.125 5.25 C-8.03507813 5.39953125 -8.94515625 5.5490625 -9.8828125 5.703125 C-10.58148438 5.80109375 -11.28015625 5.8990625 -12 6 C-12 4.68 -12 3.36 -12 2 C-10.37787941 1.47026689 -8.75218416 0.95146893 -7.125 0.4375 C-6.22007812 0.14746094 -5.31515625 -0.14257812 -4.3828125 -0.44140625 C-2 -1 -2 -1 0 0 Z " fill="#2C2933" transform="translate(235,144)"/>
<path d="M0 0 C0.33 0 0.66 0 1 0 C0.48446121 6.49850211 -0.46667709 12.66226532 -2 19 C-2.33 19 -2.66 19 -3 19 C-4.3690399 12.27925865 -3.51076216 7.37634153 -1 1 C-0.67 0.67 -0.34 0.34 0 0 Z " fill="#272628" transform="translate(174,338)"/>
<path d="M0 0 C2.875 0.3125 2.875 0.3125 6 1 C8.30163882 4.45245824 8.34490322 5.94738713 8 10 C7.34 10.66 6.68 11.32 6 12 C5.34 12 4.68 12 4 12 C4 9.36 4 6.72 4 4 C3.34 3.67 2.68 3.34 2 3 C2 2.34 2 1.68 2 1 C1.34 0.67 0.68 0.34 0 0 Z " fill="#4FC2C6" transform="translate(340,119)"/>
<path d="M0 0 C2.32590854 3.63423209 2.16265833 6.77088331 2 11 C1.34 11 0.68 11 0 11 C0 14.3 0 17.6 0 21 C-0.33 21 -0.66 21 -1 21 C-1.33 15.06 -1.66 9.12 -2 3 C-1.34 3 -0.68 3 0 3 C0 2.01 0 1.02 0 0 Z " fill="#3E3042" transform="translate(457,267)"/>
<path d="M0 0 C-2.4444715 3.66670726 -3.81583412 3.93344791 -8 5 C-10.875 5.125 -10.875 5.125 -13 5 C-12 2 -12 2 -10.0390625 1.015625 C-9.24242187 0.76296875 -8.44578125 0.5103125 -7.625 0.25 C-6.83351563 -0.01296875 -6.04203125 -0.2759375 -5.2265625 -0.546875 C-3 -1 -3 -1 0 0 Z " fill="#231C24" transform="translate(265,251)"/>
<path d="M0 0 C0 0.66 0 1.32 0 2 C0.66 2.33 1.32 2.66 2 3 C-3.94 3.495 -3.94 3.495 -10 4 C-10 3.34 -10 2.68 -10 2 C-10.99 1.67 -11.98 1.34 -13 1 C-8.59085217 -0.10228696 -4.51617599 -0.07654536 0 0 Z " fill="#241329" transform="translate(125,159)"/>
<path d="M0 0 C0.99 0 1.98 0 3 0 C3.50615298 1.26839526 4.00469099 2.53983102 4.5 3.8125 C4.91765625 4.87404297 4.91765625 4.87404297 5.34375 5.95703125 C6 8 6 8 6 11 C5.34 11 4.68 11 4 11 C3.67 11.99 3.34 12.98 3 14 C1.56976822 9.32790951 0.59619955 4.86896303 0 0 Z " fill="#F5E3FA" transform="translate(350,111)"/>
<path d="M0 0 C5.61 0.33 11.22 0.66 17 1 C13.54145992 3.30569339 12.02062492 3.29761619 7.9375 3.3125 C6.34228516 3.33763672 6.34228516 3.33763672 4.71484375 3.36328125 C3.81894531 3.24339844 2.92304687 3.12351562 2 3 C1.34 2.01 0.68 1.02 0 0 Z " fill="#0E0710" transform="translate(116,291)"/>
<path d="M0 0 C0.33 0 0.66 0 1 0 C1.05441656 1.89551022 1.09298035 3.7914792 1.125 5.6875 C1.14820313 6.74324219 1.17140625 7.79898437 1.1953125 8.88671875 C0.99858729 12.02251859 0.33057654 14.17645373 -1 17 C-1.99 17 -2.98 17 -4 17 C-3.69201674 15.51988629 -3.378482 14.04092675 -3.0625 12.5625 C-2.80146484 11.32693359 -2.80146484 11.32693359 -2.53515625 10.06640625 C-2 8 -2 8 -1 7 C-0.63239269 4.67182036 -0.29758419 2.3381615 0 0 Z " fill="#211525" transform="translate(447,272)"/>
<path d="M0 0 C0.99 0.33 1.98 0.66 3 1 C2.74462428 3.1060986 2.47014626 5.20988754 2.1875 7.3125 C2.03667969 8.48425781 1.88585937 9.65601563 1.73046875 10.86328125 C1 14 1 14 -2 17 C-1.34 11.39 -0.68 5.78 0 0 Z " fill="#131214" transform="translate(457,278)"/>
<path d="M0 0 C2.97 0.33 5.94 0.66 9 1 C8.01 1.495 8.01 1.495 7 2 C7 2.66 7 3.32 7 4 C1.06 3.67 -4.88 3.34 -11 3 C-11 2.67 -11 2.34 -11 2 C-5.555 1.505 -5.555 1.505 0 1 C0 0.67 0 0.34 0 0 Z " fill="#322435" transform="translate(124,140)"/>
<path d="M0 0 C1.26950234 3.0006419 0.98068499 4.05184556 -0.1875 7.1875 C-2 10 -2 10 -4.1875 10.875 C-5.0846875 10.936875 -5.0846875 10.936875 -6 11 C-5.33333333 9.33333333 -4.66666667 7.66666667 -4 6 C-3.505 4.63875 -3.505 4.63875 -3 3.25 C-2 1 -2 1 0 0 Z " fill="#272129" transform="translate(456,294)"/>
<path d="M0 0 C0.33 0 0.66 0 1 0 C1 4.29 1 8.58 1 13 C1.66 13 2.32 13 3 13 C2.67 15.31 2.34 17.62 2 20 C1.01 20 0.02 20 -1 20 C-0.67 13.4 -0.34 6.8 0 0 Z " fill="#301C36" transform="translate(429,263)"/>
<path d="M0 0 C2.97 0.495 2.97 0.495 6 1 C5.01 1.495 5.01 1.495 4 2 C4 2.66 4 3.32 4 4 C-2.6 3.67 -9.2 3.34 -16 3 C-16 2.67 -16 2.34 -16 2 C-10.72 2 -5.44 2 0 2 C0 1.34 0 0.68 0 0 Z " fill="#55385D" transform="translate(345,80)"/>
<path d="M0 0 C0 3 0 3 -1.96875 5.26171875 C-2.8040625 6.06222656 -3.639375 6.86273438 -4.5 7.6875 C-5.3353125 8.49574219 -6.170625 9.30398438 -7.03125 10.13671875 C-7.6809375 10.75160156 -8.330625 11.36648438 -9 12 C-9.66 11.67 -10.32 11.34 -11 11 C-9.73347137 9.53792657 -8.46161082 8.08047074 -7.1875 6.625 C-6.47980469 5.81289063 -5.77210938 5.00078125 -5.04296875 4.1640625 C-3 2 -3 2 0 0 Z " fill="#0C060E" transform="translate(452,303)"/>
<path d="M0 0 C-2.82553984 4.23830976 -5.12180888 3.97715348 -10 5 C-9.6796875 3.08203125 -9.6796875 3.08203125 -9 1 C-5.3931275 -0.64661571 -3.8148779 -1.27162597 0 0 Z " fill="#1F1A21" transform="translate(295,241)"/>
<path d="M0 0 C0.99 0.33 1.98 0.66 3 1 C3 1.99 3 2.98 3 4 C4.98 3.67 6.96 3.34 9 3 C8.67 3.99 8.34 4.98 8 6 C5.69 6.33 3.38 6.66 1 7 C0.67 4.69 0.34 2.38 0 0 Z " fill="#FCF7FD" transform="translate(138,196)"/>
<path d="M0 0 C0.66 0 1.32 0 2 0 C2 0.66 2 1.32 2 2 C2.66 2.33 3.32 2.66 4 3 C4.33333333 5.33333333 4.66666667 7.66666667 5 10 C5.66 10.33 6.32 10.66 7 11 C6.67 11.66 6.34 12.32 6 13 C5.34 13 4.68 13 4 13 C3.32694982 11.39850114 2.66177773 9.79368971 2 8.1875 C1.62875 7.29417969 1.2575 6.40085938 0.875 5.48046875 C0 3 0 3 0 0 Z " fill="#130F14" transform="translate(424,175)"/>
<path d="M0 0 C1.09898702 3.29696105 0.87124444 4.40494903 0.0625 7.6875 C-0.22947266 8.89986328 -0.22947266 8.89986328 -0.52734375 10.13671875 C-0.68332031 10.75160156 -0.83929688 11.36648438 -1 12 C-1.66 12 -2.32 12 -3 12 C-3.08131463 10.56344146 -3.13933559 9.1255517 -3.1875 7.6875 C-3.22230469 6.88699219 -3.25710937 6.08648437 -3.29296875 5.26171875 C-2.93801608 2.52148416 -2.10633718 1.70828921 0 0 Z " fill="#0C080E" transform="translate(82,372)"/>
<path d="M0 0 C-1 3 -1 3 -3.3125 4.25 C-6.09873015 5.0275526 -7.33438378 4.98726527 -10 4 C-9 2 -9 2 -6.125 0.875 C-3 0 -3 0 0 0 Z " fill="#100812" transform="translate(378,220)"/>
<path d="M0 0 C0.33 0.66 0.66 1.32 1 2 C1.66 2 2.32 2 3 2 C2.34 4.97 1.68 7.94 1 11 C0.01 11 -0.98 11 -2 11 C-1.34 7.37 -0.68 3.74 0 0 Z " fill="#1B0E1F" transform="translate(414,173)"/>
<path d="M0 0 C0.99 0 1.98 0 3 0 C2.25 6.625 2.25 6.625 0 10 C-1.125 8.375 -1.125 8.375 -2 6 C-1.125 2.75 -1.125 2.75 0 0 Z " fill="#332B36" transform="translate(188,282)"/>
<path d="M0 0 C-4.75 5.875 -4.75 5.875 -7 7 C-7 6.34 -7 5.68 -7 5 C-7.66 4.67 -8.32 4.34 -9 4 C-8.01 4 -7.02 4 -6 4 C-6 3.34 -6 2.68 -6 2 C-6.66 1.67 -7.32 1.34 -8 1 C-2.25 -1.125 -2.25 -1.125 0 0 Z " fill="#2D2834" transform="translate(199,155)"/>
<path d="M0 0 C0.66 0.33 1.32 0.66 2 1 C0.68 3.64 -0.64 6.28 -2 9 C-2.99 9 -3.98 9 -5 9 C-4.5206753 4.68607774 -3.2542015 2.83430453 0 0 Z " fill="#211B23" transform="translate(194,274)"/>
<path d="M0 0 C0.66 0 1.32 0 2 0 C1.25 5.75 1.25 5.75 -1 8 C-3.125 7.625 -3.125 7.625 -5 7 C-4.0409375 6.1028125 -4.0409375 6.1028125 -3.0625 5.1875 C-0.79689611 3.09189663 -0.79689611 3.09189663 0 0 Z " fill="#FBF6FD" transform="translate(186,221)"/>
<path d="M0 0 C1.98 0 3.96 0 6 0 C6 0.99 6 1.98 6 3 C5.01 3.495 5.01 3.495 4 4 C4.33 4.66 4.66 5.32 5 6 C4.01 6 3.02 6 2 6 C2 5.34 2 4.68 2 4 C1.34 4 0.68 4 0 4 C0 2.68 0 1.36 0 0 Z " fill="#221B29" transform="translate(167,163)"/>
<path d="M0 0 C0.66 0 1.32 0 2 0 C1.67 3.3 1.34 6.6 1 10 C0.01 9.34 -0.98 8.68 -2 8 C-1.125 1.125 -1.125 1.125 0 0 Z " fill="#211126" transform="translate(199,230)"/>
<path d="M0 0 C0.66 0 1.32 0 2 0 C3.49821059 3.37097383 4 5.20442119 4 9 C3.01 9.33 2.02 9.66 1 10 C0.67 6.7 0.34 3.4 0 0 Z " fill="#120915" transform="translate(196,208)"/>
<path d="M0 0 C0.66 0 1.32 0 2 0 C5 6.625 5 6.625 5 10 C4.34 10 3.68 10 3 10 C0 3.375 0 3.375 0 0 Z " fill="#070308" transform="translate(420,165)"/>
<path d="M0 0 C1.98 0 3.96 0 6 0 C5.67 2.31 5.34 4.62 5 7 C4.34 7 3.68 7 3 7 C3 5.35 3 3.7 3 2 C2.01 1.67 1.02 1.34 0 1 C0 0.67 0 0.34 0 0 Z " fill="#8850F8" transform="translate(387,142)"/>
<path d="M0 0 C0 0.99 0 1.98 0 3 C-1.98 3.33 -3.96 3.66 -6 4 C-6 3.34 -6 2.68 -6 2 C-6.66 1.67 -7.32 1.34 -8 1 C-2.25 -1.125 -2.25 -1.125 0 0 Z " fill="#33303B" transform="translate(245,141)"/>
<path d="M0 0 C0.33 0.66 0.66 1.32 1 2 C1.66 2 2.32 2 3 2 C2.67 4.31 2.34 6.62 2 9 C1.01 8.67 0.02 8.34 -1 8 C-0.67 5.36 -0.34 2.72 0 0 Z " fill="#392E3D" transform="translate(176,323)"/>
<path d="M0 0 C0 0.66 0 1.32 0 2 C-4.455 2.495 -4.455 2.495 -9 3 C-4 -2 -4 -2 0 0 Z " fill="#080409" transform="translate(151,289)"/>
<path d="M0 0 C0.66 0.33 1.32 0.66 2 1 C-0.52956528 4.0916909 -3.22454612 4.90931332 -7 6 C-6 3 -6 3 -3.0625 1.25 C-2.051875 0.8375 -1.04125 0.425 0 0 Z " fill="#050306" transform="translate(98,165)"/>
<path d="M0 0 C0.66 0.33 1.32 0.66 2 1 C1.67 1.99 1.34 2.98 1 4 C-0.65 4.33 -2.3 4.66 -4 5 C-4 4.01 -4 3.02 -4 2 C-2.125 0.9375 -2.125 0.9375 0 0 Z " fill="#302A32" transform="translate(139,415)"/>
<path d="M0 0 C0.33 0 0.66 0 1 0 C1.33 3.3 1.66 6.6 2 10 C1.01 10.33 0.02 10.66 -1 11 C-1.33 9.35 -1.66 7.7 -2 6 C-1.34 6 -0.68 6 0 6 C0 4.02 0 2.04 0 0 Z " fill="#29242B" transform="translate(81,378)"/>
<path d="M0 0 C0.33 0 0.66 0 1 0 C1 2.31 1 4.62 1 7 C0.01 7.33 -0.98 7.66 -2 8 C-1.125 1.125 -1.125 1.125 0 0 Z " fill="#100812" transform="translate(198,237)"/>
<path d="M0 0 C0.33 0 0.66 0 1 0 C1 2.31 1 4.62 1 7 C0.01 7.33 -0.98 7.66 -2 8 C-1.125 1.125 -1.125 1.125 0 0 Z " fill="#131214" transform="translate(179,317)"/>
<path d="M0 0 C1.9375 0.375 1.9375 0.375 4 1 C4.33 1.66 4.66 2.32 5 3 C2.69 3.33 0.38 3.66 -2 4 C-1.34 2.68 -0.68 1.36 0 0 Z " fill="#332C35" transform="translate(424,319)"/>
<path d="M0 0 C-0.99 1.485 -0.99 1.485 -2 3 C-4.625 3.1875 -4.625 3.1875 -7 3 C-6.67 2.01 -6.34 1.02 -6 0 C-3 -1 -3 -1 0 0 Z " fill="#161017" transform="translate(211,269)"/>
<path d="M0 0 C-0.99 1.485 -0.99 1.485 -2 3 C-4.625 3.1875 -4.625 3.1875 -7 3 C-6.67 2.01 -6.34 1.02 -6 0 C-3 -1 -3 -1 0 0 Z " fill="#1D151F" transform="translate(259,253)"/>
<path d="M0 0 C0.33 0.66 0.66 1.32 1 2 C1.66 2 2.32 2 3 2 C2.67 3.98 2.34 5.96 2 8 C1.01 7.67 0.02 7.34 -1 7 C-0.67 4.69 -0.34 2.38 0 0 Z " fill="#2A162F" transform="translate(282,144)"/>
<path d="M0 0 C0 0.66 0 1.32 0 2 C-4.43076923 4.09230769 -4.43076923 4.09230769 -7.3125 3.625 C-7.869375 3.41875 -8.42625 3.2125 -9 3 C-2.25 0 -2.25 0 0 0 Z " fill="#030204" transform="translate(245,144)"/>
<path d="M0 0 C0 0.66 0 1.32 0 2 C-4.43076923 4.09230769 -4.43076923 4.09230769 -7.3125 3.625 C-7.869375 3.41875 -8.42625 3.2125 -9 3 C-2.25 0 -2.25 0 0 0 Z " fill="#040204" transform="translate(255,141)"/>
<path d="M0 0 C2.4294516 3.6441774 2.16179575 5.71241272 2 10 C1.01 9.34 0.02 8.68 -1 8 C-0.67 5.36 -0.34 2.72 0 0 Z " fill="#312634" transform="translate(163,378)"/>
<path d="M0 0 C-0.99 1.485 -0.99 1.485 -2 3 C-4.625 3.1875 -4.625 3.1875 -7 3 C-6.67 2.01 -6.34 1.02 -6 0 C-3.42525708 -0.99667468 -2.51072708 -1.25536354 0 0 Z " fill="#19121B" transform="translate(434,318)"/>
<path d="M0 0 C0.33 0 0.66 0 1 0 C1 1.98 1 3.96 1 6 C0.01 6.33 -0.98 6.66 -2 7 C-2.125 4.625 -2.125 4.625 -2 2 C-1.34 1.34 -0.68 0.68 0 0 Z " fill="#181419" transform="translate(187,289)"/>
<path d="" fill="#A3A3A3" transform="translate(0,0)"/>
<path d="" fill="#FFFFFF" transform="translate(0,0)"/>
<path d="" fill="#FFFFFF" transform="translate(0,0)"/>
<path d="" fill="#FFFFFF" transform="translate(0,0)"/>
<path d="" fill="#FFFFFF" transform="translate(0,0)"/>
<path d="" fill="#808080" transform="translate(0,0)"/>
<path d="" fill="#999999" transform="translate(0,0)"/>
<path d="" fill="#D4D4D4" transform="translate(0,0)"/>
<path d="" fill="#BFBFBF" transform="translate(0,0)"/>
</svg>
